<?xml version="1.0" encoding="UTF-8" standalone="no"?>
<!-- Created with Inkscape (http://www.inkscape.org/) -->

<svg
   version="1.1"
   id="svg1905"
   xml:space="preserve"
   width="682.66669"
   height="682.66669"
   viewBox="0 0 682.66669 682.66669"
   xmlns="http://www.w3.org/2000/svg"
   xmlns:svg="http://www.w3.org/2000/svg"><defs
     id="defs1909"><clipPath
       clipPathUnits="userSpaceOnUse"
       id="clipPath1919"><path
         d="M 0,512 H 512 V 0 H 0 Z"
         id="path1917" /></clipPath></defs><g
     id="g1911"
     transform="matrix(1.3333333,0,0,-1.3333333,0,682.66667)"><g
       id="g1913"><g
         id="g1915"
         clip-path="url(#clipPath1919)"><g
           id="g1921"
           transform="translate(474.498,71)"><path
             d="m 0,0 h -436.997 c -16.568,0 -29.999,13.432 -29.999,30 v 310 c 0,16.568 13.431,30 29.999,30 H 0 c 16.568,0 30,-13.432 30,-30 V 30 C 30,13.432 16.568,0 0,0"
             style="fill:#fafafa;fill-opacity:1;fill-rule:nonzero;stroke:none"
             id="path1923" /></g><g
           id="g1925"
           transform="translate(67.5015,71)"><path
             d="M 0,0 411.129,305.436 V 0 Z"
             style="fill:#f5f5f5;fill-opacity:1;fill-rule:nonzero;stroke:none"
             id="path1927" /></g><g
           id="g1929"
           transform="translate(67.5015,71)"><path
             d="m 0,0 h -30 c -16.568,0 -30,13.432 -30,30 v 310 c 0,16.568 13.432,30 30,30 H 0 Z"
             style="fill:#f44336;fill-opacity:1;fill-rule:nonzero;stroke:none"
             id="path1931" /></g><path
           d="m 37.501,71 h 30 v 370 h -30 z"
           style="fill:#e53935;fill-opacity:1;fill-rule:nonzero;stroke:none"
           id="path1933" /><g
           id="g1935"
           transform="translate(444.498,71)"><path
             d="m 0,0 h 30 c 16.568,0 30,13.432 30,30 v 310 c 0,16.568 -13.432,30 -30,30 H 0 Z"
             style="fill:#f44336;fill-opacity:1;fill-rule:nonzero;stroke:none"
             id="path1937" /></g><g
           id="g1939"
           transform="translate(474.498,441)"><path
             d="M 0,0 H -30 C -13.431,0 0,-13.432 0,-30 v -310 c 0,-16.568 -13.431,-30 -30,-30 H 0 c 16.568,0 30,13.432 30,30 V -30 C 30,-13.432 16.568,0 0,0"
             style="fill:#e53935;fill-opacity:1;fill-rule:nonzero;stroke:none"
             id="path1941" /></g><g
           id="g1943"
           transform="translate(37.5015,441)"><path
             d="M 0,0 H 436.997 V -30.027 L 218.499,-192.692 0,-22.923 Z"
             style="fill:#fafafa;fill-opacity:1;fill-rule:nonzero;stroke:none"
             id="path1945" /></g><g
           id="g1947"
           transform="translate(498.5615,428.8872)"><path
             d="M 0,0 C -9.893,13.291 -28.687,16.044 -41.979,6.149 L -242.562,-143.179 -443.146,6.149 c -13.29,9.894 -32.084,7.141 -41.978,-6.149 -9.893,-13.29 -7.14,-32.084 6.149,-41.979 l 218.499,-162.664 c 5.316,-3.958 11.615,-5.937 17.914,-5.937 6.3,0 12.599,1.979 17.916,5.937 L -6.148,-41.979 C 7.142,-32.084 9.895,-13.29 0,0"
             style="fill:#f44336;fill-opacity:1;fill-rule:nonzero;stroke:none"
             id="path1949" /></g><g
           id="g1951"
           transform="translate(498.5615,428.8872)"><path
             d="M 0,0 C -9.188,12.343 -26.051,15.591 -39.055,8.065 -35.618,6.083 -32.52,3.385 -30,0 c 9.895,-13.29 7.142,-32.084 -6.148,-41.979 l -218.498,-162.664 c -0.94,-0.699 -1.92,-1.315 -2.916,-1.891 4.638,-2.682 9.814,-4.046 15,-4.046 6.3,0 12.599,1.979 17.916,5.937 L -6.148,-41.979 C 7.142,-32.084 9.895,-13.29 0,0"
             style="fill:#e53935;fill-opacity:1;fill-rule:nonzero;stroke:none"
             id="path1953" /></g><g
           id="g1955"
           transform="translate(504.498,320.436)"><path
             d="m 0,0 v -219.436 c 0,-16.568 -13.432,-30 -30,-30 h -436.997 c -16.568,0 -29.999,13.432 -29.999,30 v 26.205"
             style="fill:none;stroke:#000000;stroke-width:15;stroke-linecap:round;stroke-linejoin:round;stroke-miterlimit:10;stroke-dasharray:none;stroke-opacity:1"
             id="path1957" /></g><g
           id="g1959"
           transform="translate(7.502,161.0518)"><path
             d="m 0,0 v 249.948 c 0,16.569 13.431,30 30,30 h 436.996 c 16.568,0 30,-13.431 30,-30 v -59.077"
             style="fill:none;stroke:#000000;stroke-width:15;stroke-linecap:round;stroke-linejoin:round;stroke-miterlimit:10;stroke-dasharray:none;stroke-opacity:1"
             id="path1961" /></g><g
           id="g1963"
           transform="translate(67.5015,348.1025)"><path
             d="M 0,0 V -275.975"
             style="fill:none;stroke:#000000;stroke-width:15;stroke-linecap:round;stroke-linejoin:round;stroke-miterlimit:10;stroke-dasharray:none;stroke-opacity:1"
             id="path1965" /></g><g
           id="g1967"
           transform="translate(444.499,349)"><path
             d="M 0,0 V -276.846"
             style="fill:none;stroke:#000000;stroke-width:15;stroke-linecap:round;stroke-linejoin:round;stroke-miterlimit:10;stroke-dasharray:none;stroke-opacity:1"
             id="path1969" /></g><g
           id="g1971"
           transform="translate(99.3789,402.3076)"><path
             d="m 0,0 -43.963,32.729 c -13.29,9.894 -32.084,7.141 -41.978,-6.149 -9.893,-13.29 -7.141,-32.085 6.149,-41.979 l 218.499,-162.664 c 5.315,-3.958 11.615,-5.937 17.914,-5.937 6.3,0 12.599,1.979 17.915,5.937 l 218.498,162.664 c 13.29,9.894 16.043,28.689 6.149,41.979 -9.893,13.29 -28.688,16.044 -41.979,6.149 L 156.621,-116.6 25.733,-19.158"
             style="fill:none;stroke:#000000;stroke-width:15;stroke-linecap:round;stroke-linejoin:round;stroke-miterlimit:10;stroke-dasharray:none;stroke-opacity:1"
             id="path1973" /></g></g></g></g></svg>
