<?xml version="1.0" encoding="UTF-8" standalone="no"?>
<!-- Created with Inkscape (http://www.inkscape.org/) -->

<svg
   version="1.1"
   id="svg4884"
   xml:space="preserve"
   width="682.66669"
   height="682.66534"
   viewBox="0 0 682.66669 682.66534"
   xmlns="http://www.w3.org/2000/svg"
   xmlns:svg="http://www.w3.org/2000/svg"><defs
     id="defs4888"><clipPath
       clipPathUnits="userSpaceOnUse"
       id="clipPath4902"><path
         d="M 0,511.999 H 512 V 0 H 0 Z"
         id="path4900" /></clipPath></defs><g
     id="g4890"
     transform="matrix(1.3333333,0,0,-1.3333333,0,682.66533)"><g
       id="g4892"
       transform="translate(256.3227,457.8994)"><path
         d="m 0,0 -172.888,-168.174 v -247.044 h 345.777 v 247.044 z"
         style="fill:#dfebfa;fill-opacity:1;fill-rule:nonzero;stroke:none"
         id="path4894" /></g><g
       id="g4896"><g
         id="g4898"
         clip-path="url(#clipPath4902)"><g
           id="g4904"
           transform="translate(124.437,264.502)"><path
             d="m 0,0 c 0,5.897 2.385,11.544 6.612,15.655 l 153.999,149.8 -28.725,27.942 L -41.002,25.224 V -221.82 H 0 Z"
             style="fill:#b1dbfc;fill-opacity:1;fill-rule:nonzero;stroke:none"
             id="path4906" /></g><g
           id="g4908"
           transform="translate(362.2768,469.3174)"><path
             d="m 0,0 v -62.701 l 55.362,-53.852 V 0 Z"
             style="fill:#695d67;fill-opacity:1;fill-rule:nonzero;stroke:none"
             id="path4910" /></g><g
           id="g4912"
           transform="translate(394.3383,402.3555)"><path
             d="m 0,0 c -2.801,2.724 -4.381,6.465 -4.381,10.372 v 56.59 H -32.062 V 4.261 L 23.3,-49.591 v 26.926 z"
             style="fill:#544e55;fill-opacity:1;fill-rule:nonzero;stroke:none"
             id="path4914" /></g><g
           id="g4916"
           transform="translate(475.0786,299.8907)"><path
             d="m 0,0 -204.316,198.744 c -8.039,7.821 -20.841,7.821 -28.88,0 L -437.512,0 c -8.198,-7.974 -8.38,-21.085 -0.404,-29.284 7.975,-8.199 21.086,-8.38 29.284,-0.404 l 187.034,181.933 c 1.582,1.538 4.102,1.538 5.684,0 L -28.88,-29.688 c 8.202,-7.978 21.313,-7.792 29.284,0.404 C 8.38,-21.085 8.199,-7.974 0,0"
             style="fill:#ff656f;fill-opacity:1;fill-rule:nonzero;stroke:none"
             id="path4918" /></g><g
           id="g4920"
           transform="translate(253.4809,452.1353)"><path
             d="m 0,0 c 0.71,0.691 1.611,1.054 2.53,1.125 l 18.205,17.708 c 5.376,5.23 12.878,6.943 19.665,5.178 L 17.282,46.5 c -8.039,7.82 -20.841,7.82 -28.88,0 l -204.316,-198.745 c -8.199,-7.973 -8.38,-21.085 -0.404,-29.284 7.975,-8.199 21.086,-8.38 29.284,-0.404 z"
             style="fill:#ff4756;fill-opacity:1;fill-rule:nonzero;stroke:none"
             id="path4922" /></g><g
           id="g4924"
           transform="translate(433.6987,473.5489)"><path
             d="m 0,0 v 23.72 c 0,3.994 -3.238,7.232 -7.232,7.232 H -80.25 c -3.994,0 -7.231,-3.238 -7.231,-7.232 V 0 c 0,-3.994 3.237,-7.231 7.231,-7.231 H -7.232 C -3.238,-7.231 0,-3.994 0,0"
             style="fill:#7b6c79;fill-opacity:1;fill-rule:nonzero;stroke:none"
             id="path4926" /></g><g
           id="g4928"
           transform="translate(373.8979,473.5489)"><path
             d="m 0,0 v 23.72 c 0,3.994 3.237,7.232 7.231,7.232 H -20.45 c -3.993,0 -7.231,-3.238 -7.231,-7.232 V 0 c 0,-3.994 3.238,-7.231 7.231,-7.231 H 7.231 C 3.237,-7.231 0,-3.994 0,0"
             style="fill:#695d67;fill-opacity:1;fill-rule:nonzero;stroke:none"
             id="path4930" /></g><path
           d="M 123.437,42.682 H 239.41 V 229.925 H 123.437 Z"
           style="fill:#ab6b51;fill-opacity:1;fill-rule:nonzero;stroke:none"
           id="path4932" /><path
           d="m 123.437,42.682 h 37.559 v 187.243 h -37.559 z"
           style="fill:#965a44;fill-opacity:1;fill-rule:nonzero;stroke:none"
           id="path4934" /><g
           id="g4936"
           transform="translate(273.2358,228.9248)"><path
             d="m 0,0 v -140.029 c 0,-3.088 2.503,-5.592 5.592,-5.592 h 104.789 c 3.088,0 5.592,2.504 5.592,5.592 V 0 Z"
             style="fill:#60b8fe;fill-opacity:1;fill-rule:nonzero;stroke:none"
             id="path4938" /></g><g
           id="g4940"
           transform="translate(310.7944,88.8955)"><path
             d="M 0,0 V 140.029 H -37.559 V 0 c 0,-3.088 2.504,-5.592 5.592,-5.592 H 5.592 C 2.503,-5.592 0,-3.088 0,0"
             style="fill:#23a8fe;fill-opacity:1;fill-rule:nonzero;stroke:none"
             id="path4942" /></g><g
           id="g4944"
           transform="translate(383.6167,264.3369)"><path
             d="m 0,0 h -104.789 c -3.088,0 -5.592,-2.504 -5.592,-5.592 v -30.82 H 5.592 v 30.82 C 5.592,-2.504 3.088,0 0,0"
             style="fill:#23a8fe;fill-opacity:1;fill-rule:nonzero;stroke:none"
             id="path4946" /></g><g
           id="g4948"
           transform="translate(316.3862,264.3369)"><path
             d="m 0,0 h -37.559 c -3.088,0 -5.591,-2.504 -5.591,-5.592 v -30.82 h 37.558 v 30.82 C -5.592,-2.504 -3.088,0 0,0"
             style="fill:#0193fa;fill-opacity:1;fill-rule:nonzero;stroke:none"
             id="path4950" /></g><g
           id="g4952"
           transform="translate(233.8183,264.3369)"><path
             d="m 0,0 h -104.789 c -3.088,0 -5.592,-2.504 -5.592,-5.592 v -30.82 H 5.592 v 30.82 C 5.592,-2.504 3.088,0 0,0"
             style="fill:#bc7c63;fill-opacity:1;fill-rule:nonzero;stroke:none"
             id="path4954" /></g><g
           id="g4956"
           transform="translate(166.5879,264.3369)"><path
             d="m 0,0 h -37.559 c -3.088,0 -5.592,-2.504 -5.592,-5.592 v -30.82 h 37.559 v 30.82 C -5.592,-2.504 -3.088,0 0,0"
             style="fill:#ab6b51;fill-opacity:1;fill-rule:nonzero;stroke:none"
             id="path4958" /></g><g
           id="g4960"
           transform="translate(198.9927,162.3448)"><path
             d="m 0,0 c -8.292,0 -15.014,-6.722 -15.014,-15.015 0,-8.292 6.722,-15.013 15.014,-15.013 8.292,0 15.015,6.721 15.015,15.013 C 15.015,-6.722 8.292,0 0,0"
             style="fill:#dfebfa;fill-opacity:1;fill-rule:nonzero;stroke:none"
             id="path4962" /></g><g
           id="g4964"
           transform="translate(436.5117,45.6817)"><path
             d="m 0,0 h -360.378 c -3.994,0 -7.231,-3.238 -7.231,-7.231 v -23.72 c 0,-3.994 3.237,-7.233 7.231,-7.233 H 0 c 3.994,0 7.232,3.239 7.232,7.233 v 23.72 C 7.232,-3.238 3.994,0 0,0"
             style="fill:#43cb8e;fill-opacity:1;fill-rule:nonzero;stroke:none"
             id="path4966" /></g><g
           id="g4968"
           transform="translate(114.6523,14.7305)"><path
             d="m 0,0 v 23.72 c 0,3.994 3.237,7.231 7.231,7.231 h -45.75 c -3.994,0 -7.231,-3.237 -7.231,-7.231 V 0 c 0,-3.994 3.237,-7.231 7.231,-7.231 H 7.231 C 3.237,-7.231 0,-3.994 0,0"
             style="fill:#00ba66;fill-opacity:1;fill-rule:nonzero;stroke:none"
             id="path4970" /></g><g
           id="g4972"
           transform="translate(445.8759,270.2022)"><path
             d="M 0,0 -189.876,184.697 -379.751,0 c -8.199,-7.976 -21.31,-7.795 -29.285,0.404 -7.976,8.2 -7.795,21.311 0.404,29.284 l 204.316,198.745 c 8.039,7.82 20.841,7.82 28.88,0 L 28.88,29.688 C 37.079,21.715 37.26,8.604 29.284,0.404 21.312,-7.792 8.202,-7.978 0,0 Z"
             style="fill:none;stroke:#000000;stroke-width:15;stroke-linecap:round;stroke-linejoin:round;stroke-miterlimit:10;stroke-dasharray:none;stroke-opacity:1"
             id="path4974" /></g><g
           id="g4976"
           transform="translate(436.1889,45.6817)"><path
             d="m 0,0 h -360.378 c -3.994,0 -7.231,-3.238 -7.231,-7.231 v -23.72 c 0,-3.994 3.237,-7.233 7.231,-7.233 H 0 c 3.994,0 7.232,3.239 7.232,7.233 v 23.72 C 7.232,-3.238 3.994,0 0,0 Z"
             style="fill:none;stroke:#000000;stroke-width:15;stroke-linecap:round;stroke-linejoin:round;stroke-miterlimit:10;stroke-dasharray:none;stroke-opacity:1"
             id="path4978" /></g><g
           id="g4980"
           transform="translate(433.3759,473.5489)"><path
             d="m 0,0 v 23.72 c 0,3.994 -3.238,7.232 -7.232,7.232 H -80.25 c -3.994,0 -7.231,-3.238 -7.231,-7.232 V 0 c 0,-3.994 3.237,-7.231 7.231,-7.231 H -7.232 C -3.238,-7.231 0,-3.994 0,0 Z"
             style="fill:none;stroke:#000000;stroke-width:15;stroke-linecap:round;stroke-linejoin:round;stroke-miterlimit:10;stroke-dasharray:none;stroke-opacity:1"
             id="path4982" /></g><g
           id="g4984"
           transform="translate(428.8886,45.6817)"><path
             d="M 0,0 V 241.044"
             style="fill:none;stroke:#000000;stroke-width:15;stroke-linecap:round;stroke-linejoin:round;stroke-miterlimit:10;stroke-dasharray:none;stroke-opacity:1"
             id="path4986" /></g><g
           id="g4988"
           transform="translate(83.1118,286.7256)"><path
             d="M 0,0 V -241.044"
             style="fill:none;stroke:#000000;stroke-width:15;stroke-linecap:round;stroke-linejoin:round;stroke-miterlimit:10;stroke-dasharray:none;stroke-opacity:1"
             id="path4990" /></g><g
           id="g4992"
           transform="translate(383.2939,264.3369)"><path
             d="m 0,0 h -104.789 c -3.088,0 -5.592,-2.504 -5.592,-5.592 v -169.849 c 0,-3.088 2.504,-5.592 5.592,-5.592 H 0 c 3.088,0 5.592,2.504 5.592,5.592 V -5.592 C 5.592,-2.504 3.088,0 0,0 Z"
             style="fill:none;stroke:#000000;stroke-width:15;stroke-linecap:round;stroke-linejoin:round;stroke-miterlimit:10;stroke-dasharray:none;stroke-opacity:1"
             id="path4994" /></g><g
           id="g4996"
           transform="translate(123.1142,227.9248)"><path
             d="M 0,0 H 115.973"
             style="fill:none;stroke:#000000;stroke-width:15;stroke-linecap:round;stroke-linejoin:round;stroke-miterlimit:10;stroke-dasharray:none;stroke-opacity:1"
             id="path4998" /></g><g
           id="g5000"
           transform="translate(272.9131,227.9248)"><path
             d="M 0,0 H 115.973"
             style="fill:none;stroke:#000000;stroke-width:15;stroke-linecap:round;stroke-linejoin:round;stroke-miterlimit:10;stroke-dasharray:none;stroke-opacity:1"
             id="path5002" /></g><g
           id="g5004"
           transform="translate(198.6699,162.3448)"><path
             d="m 0,0 c -8.292,0 -15.014,-6.722 -15.014,-15.015 0,-8.292 6.722,-15.013 15.014,-15.013 8.292,0 15.015,6.721 15.015,15.013 C 15.015,-6.722 8.292,0 0,0 Z"
             style="fill:none;stroke:#000000;stroke-width:15;stroke-linecap:round;stroke-linejoin:round;stroke-miterlimit:10;stroke-dasharray:none;stroke-opacity:1"
             id="path5006" /></g><g
           id="g5008"
           transform="translate(330.8994,227.9248)"><path
             d="M 0,0 V -144.621"
             style="fill:none;stroke:#000000;stroke-width:15;stroke-linecap:round;stroke-linejoin:round;stroke-miterlimit:10;stroke-dasharray:none;stroke-opacity:1"
             id="path5010" /></g><g
           id="g5012"
           transform="translate(272.9131,155.6133)"><path
             d="M 0,0 H 115.973"
             style="fill:none;stroke:#000000;stroke-width:15;stroke-linecap:round;stroke-linejoin:round;stroke-miterlimit:10;stroke-dasharray:none;stroke-opacity:1"
             id="path5014" /></g><g
           id="g5016"
           transform="translate(239.0874,45.6817)"><path
             d="m 0,0 v 213.063 c 0,3.088 -2.504,5.592 -5.592,5.592 h -34.894"
             style="fill:none;stroke:#000000;stroke-width:15;stroke-linecap:round;stroke-linejoin:round;stroke-miterlimit:10;stroke-dasharray:none;stroke-opacity:1"
             id="path5018" /></g><g
           id="g5020"
           transform="translate(163.6011,264.3369)"><path
             d="m 0,0 h -34.895 c -3.088,0 -5.592,-2.504 -5.592,-5.592 v -213.063"
             style="fill:none;stroke:#000000;stroke-width:15;stroke-linecap:round;stroke-linejoin:round;stroke-miterlimit:10;stroke-dasharray:none;stroke-opacity:1"
             id="path5022" /></g><g
           id="g5024"
           transform="translate(361.9541,466.3174)"><path
             d="M 0,0 V -56.701"
             style="fill:none;stroke:#000000;stroke-width:15;stroke-linecap:round;stroke-linejoin:round;stroke-miterlimit:10;stroke-dasharray:none;stroke-opacity:1"
             id="path5026" /></g><g
           id="g5028"
           transform="translate(417.3159,441.0713)"><path
             d="M 0,0 V 25.246"
             style="fill:none;stroke:#000000;stroke-width:15;stroke-linecap:round;stroke-linejoin:round;stroke-miterlimit:10;stroke-dasharray:none;stroke-opacity:1"
             id="path5030" /></g><g
           id="g5032"
           transform="translate(417.3159,355.7642)"><path
             d="M 0,0 V 50.307"
             style="fill:none;stroke:#000000;stroke-width:15;stroke-linecap:round;stroke-linejoin:round;stroke-miterlimit:10;stroke-dasharray:none;stroke-opacity:1"
             id="path5034" /></g></g></g></g></svg>
