<?xml version="1.0" encoding="UTF-8" standalone="no"?>
<!-- Created with Inkscape (http://www.inkscape.org/) -->

<svg
   version="1.1"
   id="svg2055"
   xml:space="preserve"
   width="682.66669"
   height="682.66669"
   viewBox="0 0 682.66669 682.66669"
   xmlns="http://www.w3.org/2000/svg"
   xmlns:svg="http://www.w3.org/2000/svg"><defs
     id="defs2059"><clipPath
       clipPathUnits="userSpaceOnUse"
       id="clipPath2069"><path
         d="M 0,512 H 512 V 0 H 0 Z"
         id="path2067" /></clipPath></defs><g
     id="g2061"
     transform="matrix(1.3333333,0,0,-1.3333333,0,682.66667)"><g
       id="g2063"><g
         id="g2065"
         clip-path="url(#clipPath2069)"><g
           id="g2071"
           transform="translate(453.5098,357.3501)"><path
             d="m 0,0 c 0.2,-4.37 0.29,-8.77 0.29,-13.18 0,-134.74 -102.57,-290.13 -290.12,-290.13 -57.59,0 -111.18,16.88 -156.31,45.81 7.98,-0.94 16.11,-1.41 24.33,-1.41 47.78,0 91.74,16.29 126.64,43.64 -44.63,0.83 -82.27,30.31 -95.25,70.83 6.21,-1.2 12.6,-1.84 19.16,-1.84 9.31,0 18.32,1.25 26.89,3.58 -46.66,9.35 -81.81,50.58 -81.81,99.96 0,0.46 0,0.88 0.02,1.3 13.74,-7.64 29.45,-12.23 46.181,-12.75 -27.371,18.27 -45.381,49.5 -45.381,84.88 0,18.68 5.05,36.18 13.81,51.25 50.29,-61.7 125.44,-102.27 210.18,-106.54 -1.75,7.47 -2.64,15.25 -2.64,23.26 0,56.28 45.66,101.95 101.97,101.95 8.71,0 17.17,-1.09 25.25,-3.16 h 0.01 C -57.66,92.59 -40.68,82.32 -27.6,68.39 -4.38,72.98 17.44,81.46 37.14,93.14 29.521,69.34 13.36,49.37 -7.69,36.74 12.93,39.21 32.59,44.68 50.86,52.8 37.21,32.35 19.91,14.39 0,0"
             style="fill:#4dd4f7;fill-opacity:1;fill-rule:nonzero;stroke:none"
             id="path2073" /></g><g
           id="g2075"
           transform="translate(453.5098,357.3501)"><path
             d="m 0,0 c 0.2,-4.37 0.29,-8.77 0.29,-13.18 0,-134.74 -102.57,-290.13 -290.12,-290.13 -57.59,0 -111.18,16.88 -156.31,45.81 292.29,-145.53 546.44,199.01 369.36,354.95 19.12,-4.86 36.1,-15.13 49.18,-29.06 23.22,4.59 45.04,13.07 64.74,24.75 C 29.521,69.34 13.36,49.37 -7.69,36.74 12.93,39.21 32.59,44.68 50.86,52.8 37.21,32.35 19.91,14.39 0,0"
             style="fill:#00c2f3;fill-opacity:1;fill-rule:nonzero;stroke:none"
             id="path2077" /></g><g
           id="g2079"
           transform="translate(261.2378,479.6421)"><path
             d="m 0,0 c 0,-13.72 -11.1,-24.84 -24.8,-24.84 h -16.642 l -19.12,-26.4 -19.13,26.4 h -84.293 c -13.69,0 -24.8,11.12 -24.8,24.84 0,13.71 11.11,24.83 24.8,24.83 H -24.8 C -11.1,24.83 0,13.71 0,0"
             style="fill:#ff6b81;fill-opacity:1;fill-rule:nonzero;stroke:none"
             id="path2081" /></g><g
           id="g2083"
           transform="translate(261.2378,479.6421)"><path
             d="m 0,0 c 0,-13.72 -11.1,-24.84 -24.8,-24.84 h -20 c 13.7,0 24.8,11.12 24.8,24.84 0,13.71 -11.1,24.83 -24.8,24.83 h 20 C -11.1,24.83 0,13.71 0,0"
             style="fill:#ed2061;fill-opacity:1;fill-rule:nonzero;stroke:none"
             id="path2085" /></g><g
           id="g2087"
           transform="translate(504.373,32.4033)"><path
             d="m 0,0 c 0,13.72 -11.1,24.84 -24.8,24.84 h -16.642 l -19.12,26.4 -19.13,-26.4 h -84.293 c -13.69,0 -24.801,-11.12 -24.801,-24.84 0,-13.71 11.111,-24.83 24.801,-24.83 H -24.8 C -11.1,-24.83 0,-13.71 0,0"
             style="fill:#fbdf63;fill-opacity:1;fill-rule:nonzero;stroke:none"
             id="path2089" /></g><g
           id="g2091"
           transform="translate(504.373,32.4033)"><path
             d="m 0,0 c 0,13.72 -11.1,24.84 -24.8,24.84 h -20 C -31.1,24.84 -20,13.72 -20,0 c 0,-13.71 -11.1,-24.83 -24.8,-24.83 h 20 C -11.1,-24.83 0,-13.71 0,0"
             style="fill:#ffa402;fill-opacity:1;fill-rule:nonzero;stroke:none"
             id="path2093" /></g><g
           id="g2095"
           transform="translate(316.0532,451.6377)"><path
             d="m 0,0 c -38.854,-14.396 -66.554,-51.792 -66.554,-95.632 0,-8.005 0.895,-15.786 2.643,-23.252 -44.462,2.238 -86.281,14.469 -123.255,34.502"
             style="fill:none;stroke:#000000;stroke-width:15;stroke-linecap:round;stroke-linejoin:round;stroke-miterlimit:10;stroke-dasharray:none;stroke-opacity:1"
             id="path2097" /></g><g
           id="g2099"
           transform="translate(446.5708,281.1182)"><path
             d="m 0,0 c 4.797,21.077 7.227,42.308 7.227,63.049 0,4.414 -0.091,8.808 -0.288,13.18 19.907,14.394 37.213,32.356 50.863,52.801 -18.269,-8.122 -37.933,-13.586 -58.556,-16.054 21.051,12.627 37.216,32.594 44.837,56.399 -19.702,-11.679 -41.52,-20.165 -64.749,-24.749 -18.606,19.82 -45.099,32.215 -74.433,32.215"
             style="fill:none;stroke:#000000;stroke-width:15;stroke-linecap:round;stroke-linejoin:round;stroke-miterlimit:10;stroke-dasharray:none;stroke-opacity:1"
             id="path2101" /></g><g
           id="g2103"
           transform="translate(101.7852,383.9258)"><path
             d="M 0,0 C -22.451,15.569 -42.598,34.228 -59.827,55.367 -68.582,40.298 -73.633,22.791 -73.633,4.113 c 0,-35.374 18.004,-66.607 45.377,-84.876 -16.73,0.515 -32.443,5.107 -46.181,12.752 -0.015,-0.429 -0.015,-0.846 -0.015,-1.301 0,-49.384 35.146,-90.617 81.808,-99.959 -8.569,-2.333 -17.586,-3.588 -26.887,-3.588 -6.56,0 -12.953,0.645 -19.168,1.839 12.983,-40.515 50.628,-69.997 95.258,-70.823 -34.9,-27.354 -78.866,-43.648 -126.646,-43.648 -8.221,0 -16.343,0.47 -24.325,1.411 45.126,-28.924 98.716,-45.805 156.306,-45.805 l -0.004,0.004 c 144.162,0 238.111,91.798 273.868,195.462"
             style="fill:none;stroke:#000000;stroke-width:15;stroke-linecap:round;stroke-linejoin:round;stroke-miterlimit:10;stroke-dasharray:none;stroke-opacity:1"
             id="path2105" /></g><g
           id="g2107"
           transform="translate(97.251,454.7847)"><path
             d="m 0,0 c -13.696,0 -24.798,11.129 -24.798,24.857 0,13.729 11.102,24.858 24.798,24.858 h 139.188 c 13.696,0 24.799,-11.129 24.799,-24.858 C 163.987,11.129 152.884,0 139.188,0 h -16.64 L 103.425,-26.428 84.302,0 Z"
             style="fill:none;stroke:#000000;stroke-width:15;stroke-linecap:round;stroke-linejoin:round;stroke-miterlimit:10;stroke-dasharray:none;stroke-opacity:1"
             id="path2109" /></g><g
           id="g2111"
           transform="translate(394.4551,7.5)"><path
             d="m 0,0 h 85.12 c 13.695,0 24.798,11.129 24.798,24.858 0,13.728 -11.103,24.857 -24.798,24.857 H 68.479 L 49.356,76.144 30.233,49.715 h -84.302 c -13.696,0 -24.799,-11.129 -24.799,-24.857 C -78.868,11.129 -67.765,0 -54.069,0 h 19.284"
             style="fill:none;stroke:#000000;stroke-width:15;stroke-linecap:round;stroke-linejoin:round;stroke-miterlimit:10;stroke-dasharray:none;stroke-opacity:1"
             id="path2113" /></g><g
           id="g2115"
           transform="translate(241.1968,95.9888)"><path
             d="M 0,0 C -17.566,-5.215 -36.835,-8.908 -57.97,-10.683"
             style="fill:none;stroke:#000000;stroke-width:15;stroke-linecap:round;stroke-linejoin:round;stroke-miterlimit:10;stroke-dasharray:none;stroke-opacity:1"
             id="path2117" /></g><g
           id="g2119"
           transform="translate(419.9805,318.0518)"><path
             d="M 0,0 C 0,0 -15.897,-150.573 -146.741,-210.118"
             style="fill:none;stroke:#000000;stroke-width:15;stroke-linecap:round;stroke-linejoin:round;stroke-miterlimit:10;stroke-dasharray:none;stroke-opacity:1"
             id="path2121" /></g><g
           id="g2123"
           transform="translate(369.6704,397.1821)"><path
             d="m 0,0 c -3.357,-5.204 -9.198,-8.648 -15.848,-8.648 -6.651,0 -12.491,3.444 -15.849,8.648"
             style="fill:none;stroke:#000000;stroke-width:15;stroke-linecap:round;stroke-linejoin:round;stroke-miterlimit:10;stroke-dasharray:none;stroke-opacity:1"
             id="path2125" /></g></g></g></g></svg>
