<svg version="1.1" id="Capa_1" xmlns="http://www.w3.org/2000/svg" xmlns:xlink="http://www.w3.org/1999/xlink" x="0px" y="0px" viewBox="0 0 512 512" style="enable-background:new 0 0 512 512;" xml:space="preserve">
<g>
	<path style="fill:#ECF4FF;" d="M486.5,433.5h-461c-9.941,0-18-8.059-18-18v-352c0-9.941,8.059-18,18-18h461c9.941,0,18,8.059,18,18&#10;&#9;&#9;v352C504.5,425.441,496.441,433.5,486.5,433.5z"/>
	<path style="fill:#DDEAFB;" d="M486.5,45.5h-30c9.941,0,18,8.059,18,18v352c0,9.941-8.059,18-18,18h30c9.941,0,18-8.059,18-18v-352&#10;&#9;&#9;C504.5,53.559,496.441,45.5,486.5,45.5z"/>
	<path style="fill:#4073C8;" d="M504.5,135.5H7.5V63.775C7.5,53.682,15.682,45.5,25.775,45.5h460.451&#10;&#9;&#9;c10.093,0,18.275,8.182,18.275,18.275V135.5z"/>
	<path style="fill:#3B66C1;" d="M486.225,45.5h-30c10.093,0,18.275,8.182,18.275,18.275V135.5h30V63.775&#10;&#9;&#9;C504.5,53.682,496.318,45.5,486.225,45.5z"/>
	<circle style="fill:#C8EA73;" cx="300.144" cy="90.5" r="15"/>
	<circle style="fill:#FFE07D;" cx="362.644" cy="90.5" r="15"/>
	<circle style="fill:#DD4FB1;" cx="425.144" cy="90.5" r="15"/>
	<path style="fill:#75CEF9;" d="M244.5,456.5v-100c0-5.523,4.477-10,10-10h210c5.523,0,10,4.477,10,10v100c0,5.523-4.477,10-10,10&#10;&#9;&#9;h-210C248.977,466.5,244.5,462.023,244.5,456.5z"/>
	<path style="fill:#6BBEF6;" d="M464.5,346.5h-30c5.523,0,10,4.477,10,10v100c0,5.523-4.477,10-10,10h30c5.523,0,10-4.477,10-10&#10;&#9;&#9;v-100C474.5,350.977,470.023,346.5,464.5,346.5z"/>
	<path style="fill:#DD4FB1;" d="M244.5,302.538V177.462c0-6.054,4.908-10.962,10.962-10.962h208.077&#10;&#9;&#9;c6.054,0,10.962,4.908,10.962,10.962v125.077c0,6.054-4.908,10.962-10.962,10.962H255.462&#10;&#9;&#9;C249.408,313.5,244.5,308.592,244.5,302.538z"/>
	<path style="fill:#DA2EA2;" d="M463.538,166.5h-30c6.054,0,10.962,4.908,10.962,10.962v125.077c0,6.054-4.908,10.962-10.962,10.962&#10;&#9;&#9;h30c6.054,0,10.962-4.908,10.962-10.962V177.462C474.5,171.408,469.592,166.5,463.538,166.5z"/>
	<path style="fill:#FFE07D;" d="M37.5,455.538V177.462c0-6.054,4.908-10.962,10.962-10.962h148.077&#10;&#9;&#9;c6.054,0,10.962,4.908,10.962,10.962v278.077c0,6.054-4.908,10.962-10.962,10.962H48.462C42.408,466.5,37.5,461.592,37.5,455.538z"/>
	<path style="fill:#FFD064;" d="M196.538,166.5h-30c6.054,0,10.962,4.908,10.962,10.962v278.077c0,6.054-4.908,10.962-10.962,10.962&#10;&#9;&#9;h30c6.054,0,10.962-4.908,10.962-10.962V177.462C207.5,171.408,202.592,166.5,196.538,166.5z"/>
	<path style="fill:#75CEF9;" d="M384.5,265.5v-52c0-2.209,1.791-4,4-4h52c2.209,0,4,1.791,4,4v52c0,2.209-1.791,4-4,4h-52&#10;&#9;&#9;C386.291,269.5,384.5,267.709,384.5,265.5z"/>
	<path style="fill:#ECF4FF;" d="M384.5,432.5v-52c0-2.209,1.791-4,4-4h52c2.209,0,4,1.791,4,4v52c0,2.209-1.791,4-4,4h-52&#10;&#9;&#9;C386.291,436.5,384.5,434.709,384.5,432.5z"/>
	<path style="fill:#ECF4FF;" d="M67.5,432.094v-51.188c0-2.433,1.973-4.406,4.406-4.406h101.188c2.433,0,4.406,1.973,4.406,4.406&#10;&#9;&#9;v51.188c0,2.433-1.973,4.406-4.406,4.406H71.906C69.473,436.5,67.5,434.527,67.5,432.094z"/>
	<g>
		
			<line style="fill:none;stroke:#000000;stroke-width:15;stroke-linecap:round;stroke-linejoin:round;stroke-miterlimit:10;" x1="501.222" y1="135.5" x2="10.333" y2="135.5"/>
		<path style="fill:none;stroke:#000000;stroke-width:15;stroke-linecap:round;stroke-linejoin:round;stroke-miterlimit:10;" d="&#10;&#9;&#9;&#9;M35.667,433.5H25.5c-9.941,0-18-8.059-18-18v-352c0-9.941,8.059-18,18-18h34.833"/>
		
			<line style="fill:none;stroke:#000000;stroke-width:15;stroke-linecap:round;stroke-linejoin:round;stroke-miterlimit:10;" x1="243" y1="433.5" x2="208.833" y2="433.5"/>
		<path style="fill:none;stroke:#000000;stroke-width:15;stroke-linecap:round;stroke-linejoin:round;stroke-miterlimit:10;" d="&#10;&#9;&#9;&#9;M96.667,45.5H486.5c9.941,0,18,8.059,18,18v352c0,9.941-8.059,18-18,18h-10.667"/>
		<path style="fill:none;stroke:#000000;stroke-width:15;stroke-linecap:round;stroke-linejoin:round;stroke-miterlimit:10;" d="&#10;&#9;&#9;&#9;M411,466.5H254.5c-5.523,0-10-4.477-10-10v-100c0-5.523,4.477-10,10-10h210c5.523,0,10,4.477,10,10v100c0,5.523-4.477,10-10,10&#10;&#9;&#9;&#9;H446"/>
		<path style="fill:none;stroke:#000000;stroke-width:15;stroke-linecap:round;stroke-linejoin:round;stroke-miterlimit:10;" d="&#10;&#9;&#9;&#9;M244.5,302.538V177.462c0-6.054,4.908-10.962,10.962-10.962h208.077c6.054,0,10.962,4.908,10.962,10.962v125.077&#10;&#9;&#9;&#9;c0,6.054-4.908,10.962-10.962,10.962H255.462C249.408,313.5,244.5,308.592,244.5,302.538z"/>
		<path style="fill:none;stroke:#000000;stroke-width:15;stroke-linecap:round;stroke-linejoin:round;stroke-miterlimit:10;" d="&#10;&#9;&#9;&#9;M384.5,265.5v-52c0-2.209,1.791-4,4-4h52c2.209,0,4,1.791,4,4v52c0,2.209-1.791,4-4,4h-52&#10;&#9;&#9;&#9;C386.291,269.5,384.5,267.709,384.5,265.5z"/>
		<path style="fill:none;stroke:#000000;stroke-width:15;stroke-linecap:round;stroke-linejoin:round;stroke-miterlimit:10;" d="&#10;&#9;&#9;&#9;M384.5,432.5v-52c0-2.209,1.791-4,4-4h52c2.209,0,4,1.791,4,4v52c0,2.209-1.791,4-4,4h-52&#10;&#9;&#9;&#9;C386.291,436.5,384.5,434.709,384.5,432.5z"/>
		<path style="fill:none;stroke:#000000;stroke-width:15;stroke-linecap:round;stroke-linejoin:round;stroke-miterlimit:10;" d="&#10;&#9;&#9;&#9;M37.5,455.538V177.462c0-6.054,4.908-10.962,10.962-10.962h148.077c6.054,0,10.962,4.908,10.962,10.962v278.077&#10;&#9;&#9;&#9;c0,6.054-4.908,10.962-10.962,10.962H48.462C42.408,466.5,37.5,461.592,37.5,455.538z"/>
		<path style="fill:none;stroke:#000000;stroke-width:15;stroke-linecap:round;stroke-linejoin:round;stroke-miterlimit:10;" d="&#10;&#9;&#9;&#9;M67.5,432.094v-51.188c0-2.433,1.973-4.406,4.406-4.406h101.188c2.433,0,4.406,1.973,4.406,4.406v51.188&#10;&#9;&#9;&#9;c0,2.433-1.973,4.406-4.406,4.406H71.906C69.473,436.5,67.5,434.527,67.5,432.094z"/>
		
			<circle style="fill:none;stroke:#000000;stroke-width:15;stroke-linecap:round;stroke-linejoin:round;stroke-miterlimit:10;" cx="300.144" cy="90.5" r="15"/>
		
			<circle style="fill:none;stroke:#000000;stroke-width:15;stroke-linecap:round;stroke-linejoin:round;stroke-miterlimit:10;" cx="362.644" cy="90.5" r="15"/>
		
			<circle style="fill:none;stroke:#000000;stroke-width:15;stroke-linecap:round;stroke-linejoin:round;stroke-miterlimit:10;" cx="425.144" cy="90.5" r="15"/>
		<g>
			
				<line style="fill:none;stroke:#000000;stroke-width:15;stroke-linecap:round;stroke-linejoin:round;stroke-miterlimit:10;" x1="282.667" y1="209.5" x2="324.732" y2="209.5"/>
			
				<line style="fill:none;stroke:#000000;stroke-width:15;stroke-linecap:round;stroke-linejoin:round;stroke-miterlimit:10;" x1="282.667" y1="239.5" x2="342.667" y2="239.5"/>
			
				<line style="fill:none;stroke:#000000;stroke-width:15;stroke-linecap:round;stroke-linejoin:round;stroke-miterlimit:10;" x1="282.667" y1="269.5" x2="342.667" y2="269.5"/>
		</g>
		<g>
			
				<line style="fill:none;stroke:#000000;stroke-width:15;stroke-linecap:round;stroke-linejoin:round;stroke-miterlimit:10;" x1="285.144" y1="376.5" x2="327.209" y2="376.5"/>
			
				<line style="fill:none;stroke:#000000;stroke-width:15;stroke-linecap:round;stroke-linejoin:round;stroke-miterlimit:10;" x1="285.144" y1="406.5" x2="345.144" y2="406.5"/>
			
				<line style="fill:none;stroke:#000000;stroke-width:15;stroke-linecap:round;stroke-linejoin:round;stroke-miterlimit:10;" x1="285.144" y1="436.5" x2="345.144" y2="436.5"/>
		</g>
		<g>
			
				<line style="fill:none;stroke:#000000;stroke-width:15;stroke-linecap:round;stroke-linejoin:round;stroke-miterlimit:10;" x1="73.587" y1="210" x2="142.172" y2="210"/>
			
				<line style="fill:none;stroke:#000000;stroke-width:15;stroke-linecap:round;stroke-linejoin:round;stroke-miterlimit:10;" x1="140.099" y1="309.146" x2="168.826" y2="309.146"/>
			
				<line style="fill:none;stroke:#000000;stroke-width:15;stroke-linecap:round;stroke-linejoin:round;stroke-miterlimit:10;" x1="73.587" y1="240" x2="171.413" y2="240"/>
			
				<line style="fill:none;stroke:#000000;stroke-width:15;stroke-linecap:round;stroke-linejoin:round;stroke-miterlimit:10;" x1="73.587" y1="270" x2="171.413" y2="270"/>
		</g>
	</g>
</g>
<g>
</g>
<g>
</g>
<g>
</g>
<g>
</g>
<g>
</g>
<g>
</g>
<g>
</g>
<g>
</g>
<g>
</g>
<g>
</g>
<g>
</g>
<g>
</g>
<g>
</g>
<g>
</g>
<g>
</g>
</svg>