<?xml version="1.0" encoding="UTF-8" standalone="no"?>
<!-- Created with Inkscape (http://www.inkscape.org/) -->

<svg
   version="1.1"
   id="svg6921"
   xml:space="preserve"
   width="682.66669"
   height="682.66669"
   viewBox="0 0 682.66669 682.66669"
   xmlns="http://www.w3.org/2000/svg"
   xmlns:svg="http://www.w3.org/2000/svg"><defs
     id="defs6925"><clipPath
       clipPathUnits="userSpaceOnUse"
       id="clipPath6935"><path
         d="M 0,512 H 512 V 0 H 0 Z"
         id="path6933" /></clipPath></defs><g
     id="g6927"
     transform="matrix(1.3333333,0,0,-1.3333333,0,682.66667)"><g
       id="g6929"><g
         id="g6931"
         clip-path="url(#clipPath6935)"><g
           id="g6937"
           transform="translate(160.4364,299.6472)"><path
             d="M 0,0 127.279,-127.279 183.848,-70.711 56.569,56.568 c -15.621,15.621 -15.621,40.948 0,56.569 v 0 c 15.621,15.621 40.947,15.621 56.568,0 l 14.142,-14.142 c 15.621,-15.621 40.948,-15.621 56.569,0 v 0 c 15.621,15.621 15.621,40.947 0,56.568 l -14.142,14.143 C 122.843,216.568 46.863,216.568 0,169.706 v -10e-4 C -46.863,122.843 -46.863,46.863 0,0"
             style="fill:#b0ee96;fill-opacity:1;fill-rule:nonzero;stroke:none"
             id="path6939" /></g><g
           id="g6941"
           transform="translate(217.005,299.6471)"><path
             d="M 0,0 C -15.62,-15.62 -40.945,-15.621 -56.566,-0.002 L 70.711,-127.279 127.279,-70.711 0,56.569 v 0 C 15.621,40.948 15.621,15.621 0,0"
             style="fill:#91de7a;fill-opacity:1;fill-rule:nonzero;stroke:none"
             id="path6943" /></g><g
           id="g6945"
           transform="translate(180.4065,398.5312)"><path
             d="m 0,0 c 0,22.091 -17.909,40 -40,40 -0.782,0 -1.558,-0.028 -2.329,-0.073 C -54.534,15.687 -57.997,-11.824 -52.72,-37.922 -48.723,-39.263 -44.449,-40 -40,-40 -17.909,-40 0,-22.091 0,0"
             style="fill:#7bce5f;fill-opacity:1;fill-rule:nonzero;stroke:none"
             id="path6947" /></g><g
           id="g6949"
           transform="translate(269.6785,303.5424)"><path
             d="m 0,0 c -12.143,-6.867 -20.345,-19.888 -20.345,-34.834 0,-22.091 17.908,-40 40,-40 14.945,0 27.967,8.202 34.834,20.345 z"
             style="fill:#7bce5f;fill-opacity:1;fill-rule:nonzero;stroke:none"
             id="path6951" /></g><g
           id="g6953"
           transform="translate(364.5,167.5)"><path
             d="m 0,0 h -217 c -22.091,0 -40,17.909 -40,40 v 0 c 0,22.091 17.909,40 40,40 H 0 C 22.091,80 40,62.091 40,40 v 0 C 40,17.909 22.091,0 0,0"
             style="fill:#b0ee96;fill-opacity:1;fill-rule:nonzero;stroke:none"
             id="path6955" /></g><g
           id="g6957"
           transform="translate(414.5,87.5)"><path
             d="m 0,0 h -317 c -22.091,0 -40,17.909 -40,40 v 0 c 0,22.091 17.909,40 40,40 H 0 C 22.091,80 40,62.091 40,40 v 0 C 40,17.909 22.091,0 0,0"
             style="fill:#91de7a;fill-opacity:1;fill-rule:nonzero;stroke:none"
             id="path6959" /></g><g
           id="g6961"
           transform="translate(122.625,127.4999)"><path
             d="m 0,0 v 0 c 0,22.091 17.909,40 40,40 h -65.125 c -22.091,0 -40,-17.909 -40,-40 v 0 c 0,-22.091 17.909,-40 40,-40 H 40 C 17.909,-40 0,-22.091 0,0"
             style="fill:#7bce5f;fill-opacity:1;fill-rule:nonzero;stroke:none"
             id="path6963" /></g><g
           id="g6965"
           transform="translate(64.4444,127.5)"><path
             d="m 0,0 v 102.382 c 0,9.142 -7.411,16.553 -16.553,16.553 v 0 c -7.835,0 -14.597,-5.493 -16.201,-13.162 L -54.788,0.483 C -67.787,-61.64 -20.375,-120 43.092,-120 h 356.964 c 22.091,0 40,17.909 40,40 v 0 c 0,22.091 -17.909,40 -40,40 H 40 C 17.909,-40 0,-22.091 0,0"
             style="fill:#b0ee96;fill-opacity:1;fill-rule:nonzero;stroke:none"
             id="path6967" /></g><g
           id="g6969"
           transform="translate(100.4065,57.5)"><path
             d="M 0,0 C -21.511,0 -39.049,-16.981 -39.956,-38.269 -26.018,-45.725 -10.033,-50 7.13,-50 H 38.74 C 39.562,-46.804 40,-43.453 40,-40 40,-17.909 22.091,0 0,0"
             style="fill:#7bce5f;fill-opacity:1;fill-rule:nonzero;stroke:none"
             id="path6971" /></g><g
           id="g6973"
           transform="translate(72.625,47.4999)"><path
             d="m 0,0 v 0 c 0,22.091 17.909,40 40,40 h -8.181 c -22.091,0 -40,17.909 -40,40 v 102.382 c 0,9.142 -7.41,16.553 -16.552,16.553 -7.835,0 -14.597,-5.493 -16.202,-13.162 L -62.968,80.483 C -75.968,18.36 -28.556,-40 34.912,-40 H 40 C 17.909,-40 0,-22.091 0,0"
             style="fill:#91de7a;fill-opacity:1;fill-rule:nonzero;stroke:none"
             id="path6975" /></g><g
           id="g6977"
           transform="translate(172.625,207.4999)"><path
             d="m 0,0 v 0 c 0,22.091 17.909,40 40,40 h -65.125 c -22.091,0 -40,-17.909 -40,-40 v 0 c 0,-22.091 17.909,-40 40,-40 H 40 C 17.909,-40 0,-22.091 0,0"
             style="fill:#91de7a;fill-opacity:1;fill-rule:nonzero;stroke:none"
             id="path6979" /></g><g
           id="g6981"
           transform="translate(324.1671,217.5)"><path
             d="m 0,0 c -22.091,0 -40,-17.909 -40,-40 0,-3.453 0.438,-6.804 1.26,-10 H 38.74 C 39.562,-46.804 40,-43.453 40,-40 40,-17.909 22.091,0 0,0"
             style="fill:#7bce5f;fill-opacity:1;fill-rule:nonzero;stroke:none"
             id="path6983" /></g><g
           id="g6985"
           transform="translate(424.2843,57.5)"><path
             d="m 0,0 c -22.091,0 -40,-17.909 -40,-40 0,-3.453 0.438,-6.804 1.26,-10 H 38.74 C 39.562,-46.804 40,-43.453 40,-40 40,-17.909 22.091,0 0,0"
             style="fill:#7bce5f;fill-opacity:1;fill-rule:nonzero;stroke:none"
             id="path6987" /></g><g
           id="g6989"
           transform="translate(216,77.5)"><path
             d="m 0,0 c 0,-22.091 17.909,-40 40,-40 22.091,0 40,17.909 40,40 0,3.453 -0.438,6.804 -1.26,10 H 1.26 C 0.438,6.804 0,3.453 0,0"
             style="fill:#7bce5f;fill-opacity:1;fill-rule:nonzero;stroke:none"
             id="path6991" /></g><g
           id="g6993"
           transform="translate(162.625,157.5)"><path
             d="m 0,0 c 0,-22.091 17.909,-40 40,-40 22.091,0 40,17.909 40,40 0,3.453 -0.438,6.804 -1.26,10 H 1.26 C 0.438,6.804 0,3.453 0,0"
             style="fill:#7bce5f;fill-opacity:1;fill-rule:nonzero;stroke:none"
             id="path6995" /></g><g
           id="g6997"
           transform="translate(384.5,137.5)"><path
             d="m 0,0 c -22.091,0 -40,-17.909 -40,-40 0,-3.453 0.438,-6.804 1.26,-10 H 30 c 3.088,0 6.089,0.362 8.976,1.024 C 39.638,-46.089 40,-43.088 40,-40 40,-17.909 22.091,0 0,0"
             style="fill:#7bce5f;fill-opacity:1;fill-rule:nonzero;stroke:none"
             id="path6999" /></g><g
           id="g7001"
           transform="translate(345.3553,397.571)"><path
             d="M 0,0 19.435,-19.435"
             style="fill:none;stroke:#000000;stroke-width:15;stroke-linecap:round;stroke-linejoin:round;stroke-miterlimit:10;stroke-dasharray:none;stroke-opacity:1"
             id="path7003" /></g><g
           id="g7005"
           transform="translate(316,432.9264)"><path
             d="M 0,0 V -12"
             style="fill:none;stroke:#000000;stroke-width:15;stroke-linecap:round;stroke-linejoin:round;stroke-miterlimit:10;stroke-dasharray:none;stroke-opacity:1"
             id="path7007" /></g><g
           id="g7009"
           transform="translate(386.7107,377.4289)"><path
             d="M 0,0 H -21.213 V -21.213"
             style="fill:none;stroke:#000000;stroke-width:15;stroke-linecap:round;stroke-linejoin:round;stroke-miterlimit:10;stroke-dasharray:none;stroke-opacity:1"
             id="path7011" /></g><g
           id="g7013"
           transform="translate(166.7221,293.3615)"><path
             d="M 0,0 45.771,-45.771"
             style="fill:none;stroke:#000000;stroke-width:15;stroke-linecap:round;stroke-linejoin:round;stroke-miterlimit:10;stroke-dasharray:none;stroke-opacity:1"
             id="path7015" /></g><g
           id="g7017"
           transform="translate(325.4995,247.7212)"><path
             d="m 0,0 -108.494,108.494 c -15.621,15.621 -15.621,40.948 0,56.569 v 0 c 15.621,15.621 40.947,15.621 56.568,0 l 14.142,-14.142 c 15.621,-15.621 40.948,-15.621 56.569,0 v 0 c 15.621,15.621 15.621,40.947 0,56.568 L 4.643,221.632 c -46.863,46.862 -122.843,46.862 -169.706,0 v -0.001 c -41.77,-41.77 -46.31,-106.672 -13.618,-153.47"
             style="fill:none;stroke:#000000;stroke-width:15;stroke-linecap:round;stroke-linejoin:round;stroke-miterlimit:10;stroke-dasharray:none;stroke-opacity:1"
             id="path7019" /></g><g
           id="g7021"
           transform="translate(128.4745,360.3535)"><path
             d="m 0,0 c 3.769,-1.178 7.774,-1.822 11.932,-1.822 22.091,0 40,17.908 40,40 0,22.091 -17.909,40 -40,40 -0.541,0 -1.078,-0.014 -1.613,-0.037"
             style="fill:none;stroke:#000000;stroke-width:15;stroke-linecap:round;stroke-linejoin:round;stroke-miterlimit:10;stroke-dasharray:none;stroke-opacity:1"
             id="path7023" /></g><g
           id="g7025"
           transform="translate(269.1562,303.2418)"><path
             d="m 0,0 c -11.855,-6.942 -19.823,-19.803 -19.823,-34.533 0,-7.697 2.174,-14.885 5.941,-20.986"
             style="fill:none;stroke:#000000;stroke-width:15;stroke-linecap:round;stroke-linejoin:round;stroke-miterlimit:10;stroke-dasharray:none;stroke-opacity:1"
             id="path7027" /></g><g
           id="g7029"
           transform="translate(147.5,167.5)"><path
             d="m 0,0 c -22.091,0 -40,17.909 -40,40 v 0 c 0,22.091 17.909,40 40,40 h 217 c 22.091,0 40,-17.909 40,-40 v 0 C 257,17.909 239.091,0 217,0"
             style="fill:none;stroke:#000000;stroke-width:15;stroke-linecap:round;stroke-linejoin:round;stroke-miterlimit:10;stroke-dasharray:none;stroke-opacity:1"
             id="path7031" /></g><g
           id="g7033"
           transform="translate(64.7458,150.466)"><path
             d="m 0,0 c 7.236,10.301 19.209,17.034 32.754,17.034 h 317 c 22.092,0 40,-17.909 40,-40 v 0 c 0,-22.091 -17.908,-40 -40,-40"
             style="fill:none;stroke:#000000;stroke-width:15;stroke-linecap:round;stroke-linejoin:round;stroke-miterlimit:10;stroke-dasharray:none;stroke-opacity:1"
             id="path7035" /></g><g
           id="g7037"
           transform="translate(240.6449,87.5)"><path
             d="m 0,0 h -136.2 c -22.092,0 -40,17.909 -40,40 v 102.382 c 0,9.142 -7.411,16.553 -16.553,16.553 v 0 c -7.835,0 -14.597,-5.493 -16.202,-13.162 L -230.988,40.483 C -243.988,-21.64 -196.576,-80 -133.108,-80 h 356.963 c 22.092,0 40,17.909 40,40 v 0 c 0,22.091 -17.908,40 -40,40 h -193.5"
             style="fill:none;stroke:#000000;stroke-width:15;stroke-linecap:round;stroke-linejoin:round;stroke-miterlimit:10;stroke-dasharray:none;stroke-opacity:1"
             id="path7039" /></g><g
           id="g7041"
           transform="translate(139.2796,8.0334)"><path
             d="m 0,0 c 0.736,3.035 1.127,6.205 1.127,9.467 0,22.091 -17.909,40 -40,40 -21.219,0 -38.573,-16.524 -39.91,-37.405"
             style="fill:none;stroke:#000000;stroke-width:15;stroke-linecap:round;stroke-linejoin:round;stroke-miterlimit:10;stroke-dasharray:none;stroke-opacity:1"
             id="path7043" /></g><g
           id="g7045"
           transform="translate(363.0806,168.2012)"><path
             d="m 0,0 c 0.71,2.984 1.087,6.097 1.087,9.299 0,22.091 -17.909,40 -40,40 -22.092,0 -40,-17.909 -40,-40 0,-2.988 0.327,-5.899 0.948,-8.7"
             style="fill:none;stroke:#000000;stroke-width:15;stroke-linecap:round;stroke-linejoin:round;stroke-miterlimit:10;stroke-dasharray:none;stroke-opacity:1"
             id="path7047" /></g><g
           id="g7049"
           transform="translate(463.2047,8.2307)"><path
             d="m 0,0 c 0.706,2.975 1.08,6.078 1.08,9.269 0,22.092 -17.909,40 -40,40 -22.092,0 -40,-17.908 -40,-40 0,-3.102 0.353,-6.122 1.021,-9.021"
             style="fill:none;stroke:#000000;stroke-width:15;stroke-linecap:round;stroke-linejoin:round;stroke-miterlimit:10;stroke-dasharray:none;stroke-opacity:1"
             id="path7051" /></g><g
           id="g7053"
           transform="translate(217.0094,86.4682)"><path
             d="m 0,0 c -0.66,-2.883 -1.009,-5.885 -1.009,-8.968 0,-22.092 17.908,-40 40,-40 22.091,0 40,17.908 40,40 0,2.957 -0.321,5.839 -0.93,8.614"
             style="fill:none;stroke:#000000;stroke-width:15;stroke-linecap:round;stroke-linejoin:round;stroke-miterlimit:10;stroke-dasharray:none;stroke-opacity:1"
             id="path7055" /></g><g
           id="g7057"
           transform="translate(163.6537,166.5522)"><path
             d="m 0,0 c -0.673,-2.909 -1.029,-5.939 -1.029,-9.052 0,-22.092 17.909,-40 40,-40 22.092,0 40,17.908 40,40 0,3.256 -0.389,6.42 -1.123,9.451"
             style="fill:none;stroke:#000000;stroke-width:15;stroke-linecap:round;stroke-linejoin:round;stroke-miterlimit:10;stroke-dasharray:none;stroke-opacity:1"
             id="path7059" /></g><g
           id="g7061"
           transform="translate(423.6372,89.2562)"><path
             d="m 0,0 c 0.56,2.661 0.863,5.416 0.863,8.244 0,22.091 -17.909,40 -40,40 -22.092,0 -40,-17.909 -40,-40 0,-3.281 0.395,-6.47 1.14,-9.522"
             style="fill:none;stroke:#000000;stroke-width:15;stroke-linecap:round;stroke-linejoin:round;stroke-miterlimit:10;stroke-dasharray:none;stroke-opacity:1"
             id="path7063" /></g></g></g></g></svg>
