<svg id="Layer_1" enable-background="new 0 0 508.04 508.04" height="512" viewBox="0 0 508.04 508.04" width="512" xmlns="http://www.w3.org/2000/svg"><g><g><g><g><g><g><path d="m483.46 108.448-1.298-25.69-25.58-3.237c-1.957-6.212-4.77-12.029-8.291-17.331l13.653-21.745-19.215-17.241-20.415 15.677c-5.668-2.943-11.782-5.135-18.204-6.442l-5.823-24.939-25.878 1.31-3.279 25.399c-6.258 1.948-12.12 4.745-17.462 8.245l-21.892-13.539-17.379 19.09 15.776 20.257c-2.969 5.629-5.181 11.701-6.502 18.078l-25.123 5.8 1.298 25.69 25.58 3.237c1.957 6.212 4.77 12.029 8.291 17.331l-13.653 21.745 19.215 17.241 20.415-15.677c5.668 2.943 11.782 5.135 18.204 6.442l5.823 24.939 25.876-1.308 3.279-25.399c6.258-1.948 12.12-4.745 17.462-8.245l21.892 13.539 17.379-19.09-15.776-20.257c2.969-5.629 5.181-11.701 6.502-18.078zm-91.654 27.522c-19.847 1.003-36.743-14.157-37.738-33.86-.996-19.703 14.286-36.489 34.132-37.492s36.743 14.157 37.738 33.86-14.285 36.489-34.132 37.492z" fill="#7974e3"/></g><g><g><path d="m182.511 287.026 162.199 71.115 72.219-164.718-29.813-76.537-109.046-47.811z" fill="#f0f0ff"/><g><path d="m376.929 193.423-65.77 150.008 33.551 14.71 72.219-164.718-18.747-48.13z" fill="#e8e8ff"/></g><path d="m387.116 116.886-23.421 53.023 53.234 23.514z" fill="#cfcfff"/></g></g></g><g><g><path d="m336.372 269.387h128.196v127.787h-128.196z" fill="#96e1ff"/><path d="m496.091 363.657-31.523 33.518v-127.788l31.523-33.518z" fill="#fdf486"/><path d="m464.568 269.387h-128.196l31.524-33.518h128.195z" fill="#fd6dc3"/></g></g><path d="m383.269 485.993 14.813-14.827-12.026-17.226c2.684-4.578 4.661-9.458 5.94-14.483l20.602-3.636-.086-21.035-20.632-3.767c-1.32-5.034-3.337-9.926-6.058-14.521l11.886-17.15-14.934-14.921-17.14 11.902c-4.598-2.717-9.492-4.73-14.527-6.045l-3.785-20.629-21.035-.067-3.617 20.605c-5.024 1.283-9.902 3.265-14.478 5.953l-17.237-12.011-14.813 14.827 12.026 17.226c-2.684 4.578-4.661 9.458-5.94 14.483l-20.602 3.636.086 21.035 20.632 3.767c1.32 5.034 3.337 9.926 6.058 14.521l-11.886 17.15 14.935 14.921 17.14-11.902c4.598 2.717 9.492 4.73 14.527 6.045l3.785 20.629 21.035.067 3.617-20.605c5.024-1.283 9.902-3.265 14.478-5.953zm-64.77-42.3c-10.396-10.386-10.464-27.172-.153-37.493s27.097-10.267 37.493.119c10.395 10.386 10.464 27.172.153 37.493s-27.097 10.267-37.493-.119z" fill="#7974e3"/></g><g><path d="m233.173 57.759c-1.225 0-2.452.01-3.683.04-81.725 1.934-148.012 69.471-148.785 151.521-.556 59.015 32.178 110.395 80.492 136.414v25.715c0 10.5 8.48 19.012 18.941 19.012h53.035z" fill="#fdf486"/><path d="m233.173 390.46h-53.035v41.938c0 18.838 15.271 34.109 34.109 34.109h18.926z" fill="#cfcfff"/></g></g><g><path d="m391.996 439.456 20.602-3.636-.086-21.035-20.632-3.767c-1.32-5.034-3.337-9.926-6.058-14.521l11.886-17.15-14.935-14.921-17.14 11.901c-4.42-2.612-9.115-4.566-13.945-5.882 16.414 13.386 26.902 33.763 26.902 56.595 0 19.77-7.872 37.691-20.635 50.837 2.77-1.073 5.473-2.366 8.076-3.895l17.237 12.011 14.813-14.827-12.026-17.226c2.685-4.579 4.662-9.458 5.941-14.484z" fill="#6b64e8"/></g></g><g fill="#060606"><path d="m503.563 235.495c-.194-3.912-3.536-7.126-7.472-7.126h-86.294l14.002-31.935c.787-1.794.831-3.909.12-5.734l-7.169-18.403c3.991-1.465 7.86-3.254 11.563-5.361l17.974 11.116c3.323 1.853 6.487 1.409 9.491-1.33l17.379-19.09c2.458-2.699 2.615-6.776.372-9.657l-12.906-16.572c1.582-3.531 2.89-7.171 3.915-10.89l20.61-4.758c3.542-.817 5.987-4.057 5.803-7.687l-1.298-25.689c-.183-3.63-2.943-6.605-6.548-7.062l-20.985-2.656c-1.394-3.596-3.063-7.085-4.993-10.439l11.169-17.788c1.941-3.092 1.375-7.133-1.343-9.57l-19.215-17.241c-2.688-2.412-6.713-2.565-9.577-.366l-16.761 12.871c-3.581-1.583-7.271-2.891-11.042-3.911l-4.768-20.42c-.826-3.533-4.071-5.989-7.682-5.785l-25.878 1.307c-3.623.183-6.595 2.933-7.06 6.53l-2.685 20.797c-3.649 1.396-7.189 3.068-10.591 5.005l-17.974-11.116c-3.071-1.898-7.06-1.341-9.491 1.33l-17.379 19.09c-2.458 2.699-2.615 6.776-.371 9.657l12.905 16.571c-1.23 2.746-2.278 5.562-3.173 8.425l-35.129-15.402c-4.359-1.442-7.652-.156-9.88 3.857l-29.818 68.009v-116.507c0-9.697-15-9.697-15 0v32.851c-51.404 2.173-98.814 29.333-127.275 73.11-5.11 7.859 7.025 16.713 12.576 8.176 25.694-39.521 68.383-64.111 114.699-66.275v317.533h-46.245c-6.309 0-11.441-5.164-11.441-11.512v-25.715c0-2.759-1.515-5.295-3.944-6.604-47.729-25.704-77.061-75.417-76.549-129.74.134-14.197 2.339-28.239 6.554-41.736 2.89-9.256-11.428-13.729-14.318-4.471-4.653 14.899-7.087 30.398-7.234 46.066-.55 58.397 30.178 111.967 80.492 140.893v21.307c0 12.006 8.004 22.168 18.941 25.419v35.53c0 22.943 18.666 41.609 41.609 41.609h12.136v26.533c0 9.697 15 9.697 15 0v-179.511l76.42 33.506-1.719 9.796c-2.523.857-4.986 1.87-7.375 3.034l-13.467-9.383c-2.981-2.078-7.024-1.72-9.593.853l-14.813 14.826c-2.569 2.571-2.924 6.614-.844 9.594l9.396 13.458c-1.162 2.391-2.173 4.854-3.028 7.379l-16.037 2.83c-3.596.635-6.211 3.766-6.197 7.416l.086 21.035c.015 3.611 2.601 6.699 6.153 7.348l16.134 2.945c.881 2.558 1.922 5.055 3.116 7.477l-9.264 13.366c-2.066 2.981-1.703 7.015.864 9.578l14.934 14.921c2.565 2.563 6.598 2.924 9.579.854l13.358-9.275c2.423 1.192 4.921 2.23 7.479 3.109l2.96 16.132c.652 3.552 3.742 6.135 7.353 6.146l21.035.066h.024c3.64 0 6.757-2.615 7.387-6.203l2.816-16.04c2.524-.857 4.986-1.87 7.375-3.034l13.466 9.383c2.982 2.079 7.025 1.721 9.593-.853l14.813-14.826c2.569-2.571 2.924-6.614.844-9.594l-9.396-13.458c1.162-2.391 2.173-4.854 3.028-7.379l16.037-2.83c3.595-.635 6.211-3.766 6.197-7.416l-.085-21.035c-.015-3.611-2.601-6.699-6.153-7.348l-15.166-2.768c21.465-.096 43.265-.099 64.461-.099 2.482.466 4.774-.276 6.876-2.227l31.523-33.519c1.308-1.392 2.037-3.229 2.037-5.139v-127.785c-.001-.126-.023-.248-.029-.374zm-24.822 7.874-17.089 18.171h-107.604l17.09-18.171zm-84.637-129.206c-.707-1.816-2.19-3.364-3.977-4.146l-28.466-12.481c1.359-13.669 12.666-24.707 26.918-25.427 15.705-.763 29.084 11.208 29.87 26.748.644 12.74-7.454 24.196-19.333 28.173zm-7.424 22.27 8.101 20.795 8.569 21.998-29.764-13.147zm-52.591-72.781-11.893-15.271 8.932-9.812 16.595 10.263c2.477 1.531 5.617 1.491 8.055-.105 4.837-3.17 10.08-5.645 15.581-7.357 2.799-.871 4.833-3.294 5.209-6.201l2.477-19.185 13.362-.675 4.398 18.837c.667 2.855 2.936 5.06 5.809 5.645 5.643 1.147 11.108 3.082 16.243 5.749 2.585 1.342 5.715 1.065 8.024-.708l15.475-11.884 9.876 8.861-10.293 16.394c-1.568 2.497-1.527 5.682.104 8.138 3.184 4.795 5.669 9.988 7.386 15.436.88 2.794 3.306 4.819 6.212 5.187l19.348 2.449.664 13.143-19.003 4.387c-2.854.658-5.063 2.919-5.657 5.786-1.158 5.594-3.107 11.011-5.792 16.101-1.375 2.608-1.095 5.78.716 8.107l11.894 15.272-8.933 9.812-16.595-10.263c-2.477-1.531-5.617-1.491-8.054.104-4.055 2.657-8.394 4.817-12.927 6.456l-6.742-17.307c17.784-6.289 29.842-23.635 28.867-42.911-1.203-23.801-21.66-42.183-45.607-40.971-20.086 1.015-36.336 15.499-40.344 34.189l-17.439-7.646c1.162-4.111 2.758-8.102 4.767-11.912 1.377-2.609 1.097-5.781-.715-8.108zm-119.842 395.355c-14.672 0-26.609-11.937-26.609-26.609v-34.438h38.745v61.047zm27.137-287.579 40.544-92.472 95.288 41.779-20.382 46.143c-1.455 4.355-.178 7.651 3.83 9.891l46.393 20.493-13.639 31.108h-25.523c-2.069 0-4.046.854-5.463 2.361l-31.523 33.519c-1.546 1.643-2.358 6.026-2.166 8.389v69.457l-1.968-.006-85.391-37.439zm163.689 258.104-14.38 2.538c-2.904.513-5.238 2.679-5.965 5.536-1.124 4.419-2.854 8.638-5.142 12.54-1.481 2.527-1.356 5.685.321 8.086l8.43 12.076-5.934 5.939-12.084-8.42c-2.403-1.675-5.562-1.796-8.087-.313-3.898 2.291-8.116 4.024-12.534 5.153-2.857.729-5.021 3.065-5.531 5.97l-2.525 14.383-8.488-.027-2.661-14.502c-.526-2.865-2.663-5.167-5.481-5.903-4.437-1.159-8.678-2.924-12.607-5.245-2.523-1.491-5.684-1.375-8.093.297l-11.994 8.327-6.07-6.063 8.317-12.001c1.669-2.409 1.783-5.57.289-8.093-2.325-3.929-4.094-8.169-5.257-12.604-.739-2.817-3.042-4.952-5.908-5.476l-14.504-2.648-.035-8.487 14.379-2.538c2.904-.513 5.238-2.679 5.965-5.536 1.124-4.419 2.854-8.638 5.142-12.54 1.481-2.527 1.356-5.685-.32-8.086l-8.431-12.076 5.934-5.939 12.083 8.42c2.402 1.676 5.561 1.797 8.086.313 3.902-2.291 8.119-4.025 12.536-5.153 2.857-.729 5.021-3.065 5.531-5.97l2.524-14.383 8.488.027 2.661 14.502c.526 2.865 2.663 5.167 5.481 5.903 4.438 1.159 8.679 2.924 12.607 5.245 2.524 1.492 5.686 1.376 8.093-.297l11.993-8.327 6.07 6.063-8.317 12.001c-1.67 2.409-1.783 5.57-.29 8.093 2.325 3.929 4.094 8.169 5.257 12.604.739 2.817 3.042 4.952 5.908 5.476l14.505 2.648zm67.016-51.301c-.003-7.385-.021-25.63-.021-25.63 0-9.697-15-9.697-15 0v36.939c-18.935.001-38.267.015-57.366.098l4.171-6.019c2.066-2.981 1.703-7.015-.863-9.578l-14.935-14.921c-2.566-2.563-6.599-2.924-9.579-.854l-13.357 9.275c-2.423-1.192-4.921-2.23-7.479-3.109l-2.96-16.132c-.945-5.15-6.382-6.815-10.853-6.158-.123-8.33.78-51.887 0-65.254h113.222v36.555c0 9.697 15 9.697 15 0 0 0 .023-28.199.023-41.106l16.5-17.544v105.892z"/><path d="m337.085 390.995c-.037-.001-.074-.001-.111-.001-9.053 0-17.549 3.516-23.933 9.905-6.41 6.416-9.92 14.958-9.883 24.053.037 9.075 3.603 17.615 10.041 24.047s14.98 9.99 24.055 10.019h.111c9.053 0 17.55-3.516 23.934-9.905 6.41-6.416 9.92-14.958 9.883-24.053-.037-9.074-3.603-17.614-10.04-24.046-6.44-6.432-14.983-9.99-24.057-10.019zm13.601 47.516c-3.564 3.567-8.322 5.562-13.386 5.507-5.088-.016-9.883-2.016-13.5-5.63-3.618-3.615-5.622-8.408-5.643-13.496-.021-5.068 1.931-9.823 5.495-13.391 3.563-3.567 8.34-5.54 13.385-5.507 5.088.017 9.883 2.016 13.501 5.631 3.618 3.614 5.622 8.407 5.642 13.495.021 5.069-1.93 9.823-5.494 13.391z"/><path d="m101.695 86.327c6.296 0 9.756-8.35 5.304-12.803l-25.574-25.578c-6.856-6.858-17.464 3.749-10.607 10.605l25.573 25.579c1.465 1.465 3.385 2.197 5.304 2.197z"/><path d="m47.888 204.487h-36.166c-9.697 0-9.697 15 0 15h36.167c9.697 0 9.697-15-.001-15z"/><path d="m98.679 338.897-25.573 25.578c-6.857 6.857 3.751 17.464 10.607 10.605l25.573-25.578c6.857-6.857-3.751-17.463-10.607-10.605z"/></g></g></svg>