<svg id="visual" viewBox="0 0 900 600" width="900" height="600" xmlns="http://www.w3.org/2000/svg"
     xmlns:xlink="http://www.w3.org/1999/xlink" version="1.1">
    <rect x="0" y="0" width="900" height="600" fill="#071C21"></rect>
    <defs>
        <linearGradient id="grad1_0" x1="33.3%" y1="100%" x2="100%" y2="0%">
            <stop offset="20%" stop-color="#071c21" stop-opacity="1"></stop>
            <stop offset="80%" stop-color="#071c21" stop-opacity="1"></stop>
        </linearGradient>
    </defs>
    <defs>
        <linearGradient id="grad2_0" x1="0%" y1="100%" x2="66.7%" y2="0%">
            <stop offset="20%" stop-color="#071c21" stop-opacity="1"></stop>
            <stop offset="80%" stop-color="#071c21" stop-opacity="1"></stop>
        </linearGradient>
    </defs>
    <g transform="translate(900, 600)">
        <path d="M-297.5 0C-293.3 -38.4 -289.1 -76.9 -274.8 -113.8C-260.6 -150.8 -236.3 -186.3 -204.4 -204.4C-172.4 -222.4 -132.9 -223 -97.6 -235.6C-62.3 -248.2 -31.1 -272.8 0 -297.5L0 0Z"
              fill="#C6DE41"></path>
    </g>
    <g transform="translate(0, 0)">
        <path d="M297.5 0C294.1 39 290.7 78 274.8 113.8C258.9 149.7 230.5 182.5 197.3 197.3C164 212.1 125.9 209 92.2 222.7C58.5 236.4 29.3 266.9 0 297.5L0 0Z"
              fill="#C6DE41"></path>
    </g>
</svg>