<?xml version="1.0" encoding="UTF-8" standalone="no"?>
<!-- Created with Inkscape (http://www.inkscape.org/) -->

<svg
   version="1.1"
   id="svg2067"
   xml:space="preserve"
   width="682.66669"
   height="682.66669"
   viewBox="0 0 682.66669 682.66669"
   xmlns="http://www.w3.org/2000/svg"
   xmlns:svg="http://www.w3.org/2000/svg"><defs
     id="defs2071"><clipPath
       clipPathUnits="userSpaceOnUse"
       id="clipPath2081"><path
         d="M 0,512 H 512 V 0 H 0 Z"
         id="path2079" /></clipPath></defs><g
     id="g2073"
     transform="matrix(1.3333333,0,0,-1.3333333,0,682.66667)"><g
       id="g2075"><g
         id="g2077"
         clip-path="url(#clipPath2081)"><g
           id="g2083"
           transform="translate(496.3501,142.8599)"><path
             d="m 0,0 v -59.15 c 0,-7.03 -5.69,-12.72 -12.72,-12.72 h -455.26 c -7.03,0 -12.72,5.69 -12.72,12.72 V 0 c 0,1.35 0.21,2.69 0.64,3.97 l 64.41,195.65 c 1.71,5.22 6.58,8.74 12.08,8.74 h 326.44 c 5.5,0 10.37,-3.52 12.08,-8.74 L -0.64,3.97 C -0.21,2.69 0,1.35 0,0"
             style="fill:#9e9797;fill-opacity:1;fill-rule:nonzero;stroke:none"
             id="path2085" /></g><g
           id="g2087"
           transform="translate(496.3501,142.8599)"><path
             d="m 0,0 v -59.15 c 0,-7.03 -5.69,-12.72 -12.72,-12.72 H -89.2 c -0.26,90.17 1.13,238.99 1.54,280.23 h 10.53 c 5.5,0 10.37,-3.52 12.08,-8.74 L -0.64,3.97 C -0.21,2.69 0,1.35 0,0"
             style="fill:#b9acac;fill-opacity:1;fill-rule:nonzero;stroke:none"
             id="path2089" /></g><g
           id="g2091"
           transform="translate(15.6475,142.8599)"><path
             d="m 0,0 v -59.15 c 0,-7.03 5.69,-12.72 12.72,-12.72 H 89.2 C 89.46,18.3 88.07,167.12 87.66,208.36 H 77.13 c -5.5,0 -10.37,-3.52 -12.08,-8.74 L 0.64,3.97 C 0.21,2.69 0,1.35 0,0"
             style="fill:#b9acac;fill-opacity:1;fill-rule:nonzero;stroke:none"
             id="path2093" /></g><g
           id="g2095"
           transform="translate(448.0234,146.8345)"><path
             d="m 0,0 -39.222,119.136 c -1.717,5.216 -6.588,8.741 -12.08,8.741 h -281.443 c -5.492,0 -10.363,-3.525 -12.08,-8.741 L -384.046,0 c -0.423,-1.283 -0.639,-2.626 -0.639,-3.977 v -59.151 c 0,-7.023 5.694,-12.717 12.718,-12.717 H -12.08 c 7.024,0 12.718,5.694 12.718,12.717 V -3.977 C 0.638,-2.625 0.422,-1.283 0,0"
             style="fill:#766e6f;fill-opacity:1;fill-rule:nonzero;stroke:none"
             id="path2097" /></g><g
           id="g2099"
           transform="translate(348.9736,195.4219)"><path
             d="m 0,0 c 0,-14.437 -41.626,-26.14 -92.974,-26.14 -51.347,0 -92.973,11.703 -92.973,26.14 0,14.436 41.626,26.139 92.973,26.139 C -41.626,26.139 0,14.436 0,0"
             style="fill:#5b5555;fill-opacity:1;fill-rule:nonzero;stroke:none"
             id="path2101" /></g><g
           id="g2103"
           transform="translate(448.6611,142.855)"><path
             d="m 0,0 v -59.15 c 0,-7.02 -5.698,-12.718 -12.718,-12.718 h -44.245 c 7.02,0 12.718,5.698 12.718,12.718 V 0 c 0,1.348 -0.216,2.696 -0.636,3.98 l -39.222,119.14 c -1.716,5.214 -6.587,8.737 -12.082,8.737 h 44.246 c 5.494,0 10.365,-3.523 12.082,-8.737 L -0.636,3.98 C -0.216,2.696 0,1.348 0,0"
             style="fill:#5b5555;fill-opacity:1;fill-rule:nonzero;stroke:none"
             id="path2105" /></g><g
           id="g2107"
           transform="translate(448.0234,146.8345)"><path
             d="m 0,0 -39.222,119.136 c -1.717,5.216 -6.588,8.741 -12.08,8.741 h -281.443 c -5.492,0 -10.363,-3.525 -12.08,-8.741 L -384.046,0"
             style="fill:none;stroke:#000000;stroke-width:15;stroke-linecap:round;stroke-linejoin:round;stroke-miterlimit:10;stroke-dasharray:none;stroke-opacity:1"
             id="path2109" /></g><g
           id="g2111"
           transform="translate(496.3525,83.707)"><path
             d="m 0,0 v 59.15 c 0,1.351 -0.215,2.694 -0.638,3.977 l -34.349,104.337"
             style="fill:none;stroke:#000000;stroke-width:15;stroke-linecap:round;stroke-linejoin:round;stroke-miterlimit:10;stroke-dasharray:none;stroke-opacity:1"
             id="path2113" /></g><g
           id="g2115"
           transform="translate(449.791,286.3291)"><path
             d="m 0,0 -18.486,56.153 c -1.718,5.216 -6.589,8.741 -12.08,8.741 h -326.45 c -5.491,0 -10.362,-3.525 -12.08,-8.741 l -64.41,-195.648 c -0.422,-1.283 -0.638,-2.626 -0.638,-3.977 v -39.15"
             style="fill:none;stroke:#000000;stroke-width:15;stroke-linecap:round;stroke-linejoin:round;stroke-miterlimit:10;stroke-dasharray:none;stroke-opacity:1"
             id="path2117" /></g><g
           id="g2119"
           transform="translate(496.3525,130.5825)"><path
             d="m 0,0 v -110.365 c 0,-7.024 -5.694,-12.718 -12.718,-12.718 h -455.269 c -7.024,0 -12.718,5.694 -12.718,12.718 V 0 c 0,7.023 5.694,12.717 12.718,12.717 h 93.901 c 4.86,0 9.295,-2.769 11.428,-7.136 l 18.452,-37.781 c 2.132,-4.367 6.567,-7.136 11.427,-7.136 h 184.853 c 4.86,0 9.295,2.769 11.427,7.136 l 18.452,37.781 c 2.133,4.367 6.568,7.136 11.428,7.136 h 93.901 C -5.694,12.717 0,7.023 0,0"
             style="fill:#31a7fb;fill-opacity:1;fill-rule:nonzero;stroke:none"
             id="path2121" /></g><g
           id="g2123"
           transform="translate(496.3525,130.5825)"><path
             d="m 0,0 v -110.365 c 0,-7.02 -5.698,-12.718 -12.718,-12.718 h -48.427 c 7.02,0 12.718,5.698 12.718,12.718 V 0 c 0,7.02 -5.698,12.717 -12.718,12.717 h 48.427 C -5.698,12.717 0,7.02 0,0"
             style="fill:#1c96f9;fill-opacity:1;fill-rule:nonzero;stroke:none"
             id="path2125" /></g><g
           id="g2127"
           transform="translate(15.6475,52.4072)"><path
             d="m 0,0 v -32.189 c 0,-7.024 5.694,-12.718 12.718,-12.718 h 455.269 c 7.024,0 12.718,5.694 12.718,12.718 V 78.175 c 0,7.024 -5.694,12.718 -12.718,12.718 h -93.901 c -4.86,0 -9.295,-2.77 -11.428,-7.137 l -18.452,-37.78 c -2.132,-4.368 -6.567,-7.137 -11.427,-7.137 H 147.926 c -4.86,0 -9.294,2.769 -11.427,7.137 l -18.452,37.78 c -2.133,4.367 -6.568,7.137 -11.428,7.137 H 12.718 C 5.694,90.893 0,85.199 0,78.175 V 37.026"
             style="fill:none;stroke:#000000;stroke-width:15;stroke-linecap:round;stroke-linejoin:round;stroke-miterlimit:10;stroke-dasharray:none;stroke-opacity:1"
             id="path2129" /></g><g
           id="g2131"
           transform="translate(53.9116,42.1069)"><path
             d="M 0,0 H 27.446"
             style="fill:none;stroke:#000000;stroke-width:15;stroke-linecap:round;stroke-linejoin:round;stroke-miterlimit:10;stroke-dasharray:none;stroke-opacity:1"
             id="path2133" /></g><g
           id="g2135"
           transform="translate(53.9116,65.5356)"><path
             d="M 0,0 H 27.446"
             style="fill:none;stroke:#000000;stroke-width:15;stroke-linecap:round;stroke-linejoin:round;stroke-miterlimit:10;stroke-dasharray:none;stroke-opacity:1"
             id="path2137" /></g><g
           id="g2139"
           transform="translate(408.8018,265.9707)"><path
             d="M 0,0 V 85.252"
             style="fill:none;stroke:#000000;stroke-width:15;stroke-linecap:round;stroke-linejoin:round;stroke-miterlimit:10;stroke-dasharray:none;stroke-opacity:1"
             id="path2141" /></g><g
           id="g2143"
           transform="translate(103.1982,265.9707)"><path
             d="M 0,0 V 85.252"
             style="fill:none;stroke:#000000;stroke-width:15;stroke-linecap:round;stroke-linejoin:round;stroke-miterlimit:10;stroke-dasharray:none;stroke-opacity:1"
             id="path2145" /></g><g
           id="g2147"
           transform="translate(343.0234,279.2617)"><path
             d="m 0,0 c 0,-48.062 -38.961,-87.023 -87.023,-87.023 -48.062,0 -87.024,38.961 -87.024,87.023 0,48.062 38.962,87.024 87.024,87.024 C -38.961,87.024 0,48.062 0,0"
             style="fill:#a3e440;fill-opacity:1;fill-rule:nonzero;stroke:none"
             id="path2149" /></g><g
           id="g2151"
           transform="translate(343.0229,279.2642)"><path
             d="m 0,0 c 0,-48.064 -38.964,-87.028 -87.018,-87.028 -5.842,0 -11.552,0.574 -17.074,1.678 39.881,7.941 69.932,43.139 69.932,85.35 0,42.211 -30.051,77.397 -69.932,85.338 5.522,1.105 11.232,1.679 17.074,1.679 C -38.964,87.017 0,48.064 0,0"
             style="fill:#99d53b;fill-opacity:1;fill-rule:nonzero;stroke:none"
             id="path2153" /></g><g
           id="g2155"
           transform="translate(273.2979,253.3564)"><path
             d="M 0,0 C -4.614,3.938 -11.087,6.409 -18.278,6.431 -25.469,6.452 -31.957,4.02 -36.594,0.109"
             style="fill:none;stroke:#000000;stroke-width:15;stroke-linecap:round;stroke-linejoin:round;stroke-miterlimit:10;stroke-dasharray:none;stroke-opacity:1"
             id="path2157" /></g><g
           id="g2159"
           transform="translate(297.3511,287.937)"><path
             d="M 0,0 H 0.09"
             style="fill:none;stroke:#000000;stroke-width:15;stroke-linecap:round;stroke-linejoin:round;stroke-miterlimit:10;stroke-dasharray:none;stroke-opacity:1"
             id="path2161" /></g><g
           id="g2163"
           transform="translate(214.5586,287.937)"><path
             d="M 0,0 H 0.089"
             style="fill:none;stroke:#000000;stroke-width:15;stroke-linecap:round;stroke-linejoin:round;stroke-miterlimit:10;stroke-dasharray:none;stroke-opacity:1"
             id="path2165" /></g><g
           id="g2167"
           transform="translate(297.3418,287.937)"><path
             d="M 0,0 H 0.089"
             style="fill:none;stroke:#000000;stroke-width:15;stroke-linecap:round;stroke-linejoin:round;stroke-miterlimit:10;stroke-dasharray:none;stroke-opacity:1"
             id="path2169" /></g><g
           id="g2171"
           transform="translate(274.0493,194.1177)"><path
             d="m 0,0 c 39.399,8.311 68.974,43.271 68.974,85.144 0,48.062 -38.961,87.024 -87.023,87.024 -48.062,0 -87.024,-38.962 -87.024,-87.024 0,-41.543 29.112,-76.282 68.047,-84.942"
             style="fill:none;stroke:#000000;stroke-width:15;stroke-linecap:round;stroke-linejoin:round;stroke-miterlimit:10;stroke-dasharray:none;stroke-opacity:1"
             id="path2173" /></g><g
           id="g2175"
           transform="translate(216.3296,504.5)"><path
             d="M 0,0 -22.732,-22.732"
             style="fill:none;stroke:#000000;stroke-width:15;stroke-linecap:round;stroke-linejoin:round;stroke-miterlimit:10;stroke-dasharray:none;stroke-opacity:1"
             id="path2177" /></g><g
           id="g2179"
           transform="translate(216.3296,481.7681)"><path
             d="M 0,0 -22.732,22.732"
             style="fill:none;stroke:#000000;stroke-width:15;stroke-linecap:round;stroke-linejoin:round;stroke-miterlimit:10;stroke-dasharray:none;stroke-opacity:1"
             id="path2181" /></g><g
           id="g2183"
           transform="translate(108.1133,432.4854)"><path
             d="M 0,0 C 0,14.771 11.974,26.745 26.745,26.745 41.516,26.745 53.49,14.771 53.49,0 53.49,-14.771 41.516,-26.746 26.745,-26.746 11.974,-26.746 0,-14.771 0,0"
             style="fill:#bcea73;fill-opacity:1;fill-rule:nonzero;stroke:none"
             id="path2185" /></g><g
           id="g2187"
           transform="translate(121.2935,409.4375)"><path
             d="m 0,0 c 10.499,2.42 18.321,11.819 18.321,23.051 0,11.22 -7.81,20.631 -18.309,23.051 3.972,2.347 8.605,3.691 13.554,3.691 14.765,0 26.743,-11.978 26.743,-26.742 C 40.309,8.274 28.331,-3.703 13.566,-3.703 8.617,-3.703 3.972,-2.359 0,0"
             style="fill:#99d53b;fill-opacity:1;fill-rule:nonzero;stroke:none"
             id="path2189" /></g><g
           id="g2191"
           transform="translate(108.1133,432.4854)"><path
             d="M 0,0 C 0,14.771 11.974,26.745 26.745,26.745 41.516,26.745 53.49,14.771 53.49,0 53.49,-14.771 41.516,-26.746 26.745,-26.746 11.974,-26.746 0,-14.771 0,0"
             style="fill:none;stroke:#000000;stroke-width:15;stroke-linecap:round;stroke-linejoin:round;stroke-miterlimit:10;stroke-dasharray:none;stroke-opacity:1"
             id="path2193" /></g><g
           id="g2195"
           transform="translate(385.96,430.9028)"><path
             d="M 0,0 -22.732,-22.732"
             style="fill:none;stroke:#000000;stroke-width:15;stroke-linecap:round;stroke-linejoin:round;stroke-miterlimit:10;stroke-dasharray:none;stroke-opacity:1"
             id="path2197" /></g><g
           id="g2199"
           transform="translate(385.96,408.1709)"><path
             d="M 0,0 -22.732,22.732"
             style="fill:none;stroke:#000000;stroke-width:15;stroke-linecap:round;stroke-linejoin:round;stroke-miterlimit:10;stroke-dasharray:none;stroke-opacity:1"
             id="path2201" /></g><g
           id="g2203"
           transform="translate(255.6104,411.5015)"><path
             d="M 0,0 0.066,22.333"
             style="fill:none;stroke:#000000;stroke-width:15;stroke-linecap:round;stroke-linejoin:round;stroke-miterlimit:10;stroke-dasharray:none;stroke-opacity:1"
             id="path2205" /></g><g
           id="g2207"
           transform="translate(222.3037,401.9834)"><path
             d="M 0,0 -11.604,19.374"
             style="fill:none;stroke:#000000;stroke-width:15;stroke-linecap:round;stroke-linejoin:round;stroke-miterlimit:10;stroke-dasharray:none;stroke-opacity:1"
             id="path2209" /></g><g
           id="g2211"
           transform="translate(300.5786,420.9873)"><path
             d="M 0,0 -11.72,-19.31"
             style="fill:none;stroke:#000000;stroke-width:15;stroke-linecap:round;stroke-linejoin:round;stroke-miterlimit:10;stroke-dasharray:none;stroke-opacity:1"
             id="path2213" /></g><g
           id="g2215"
           transform="translate(345.7041,473.7534)"><path
             d="m 0,0 c 0,-11.733 -9.511,-21.244 -21.244,-21.244 -11.733,0 -21.244,9.511 -21.244,21.244 0,11.733 9.511,21.244 21.244,21.244 C -9.511,21.244 0,11.733 0,0"
             style="fill:#a8e7ef;fill-opacity:1;fill-rule:nonzero;stroke:none"
             id="path2217" /></g><g
           id="g2219"
           transform="translate(345.7026,473.7559)"><path
             d="m 0,0 c 0,-11.737 -9.514,-21.251 -21.242,-21.251 -3.931,0 -7.62,1.068 -10.776,2.941 8.34,1.923 14.553,9.388 14.553,18.31 0,8.913 -6.203,16.388 -14.543,18.31 3.155,1.864 6.835,2.932 10.766,2.932 C -9.514,21.242 0,11.728 0,0"
             style="fill:#6fd9e6;fill-opacity:1;fill-rule:nonzero;stroke:none"
             id="path2221" /></g><g
           id="g2223"
           transform="translate(345.7041,473.7534)"><path
             d="m 0,0 c 0,-11.733 -9.511,-21.244 -21.244,-21.244 -11.733,0 -21.244,9.511 -21.244,21.244 0,11.733 9.511,21.244 21.244,21.244 C -9.511,21.244 0,11.733 0,0 Z"
             style="fill:none;stroke:#000000;stroke-width:15;stroke-linecap:round;stroke-linejoin:round;stroke-miterlimit:10;stroke-dasharray:none;stroke-opacity:1"
             id="path2225" /></g></g></g></g></svg>
