<?xml version="1.0" encoding="iso-8859-1"?>
<!-- Generator: Adobe Illustrator 19.0.0, SVG Export Plug-In . SVG Version: 6.00 Build 0)  -->
<svg version="1.1" id="Layer_1" xmlns="http://www.w3.org/2000/svg" xmlns:xlink="http://www.w3.org/1999/xlink" x="0px" y="0px"
	 viewBox="0 0 512.001 512.001" style="enable-background:new 0 0 512.001 512.001;" xml:space="preserve">
<path style="fill:#C0E431;" d="M310.721,493.467c2.37,4.103,4.896,4.723,7.466,5.514c11.865,3.654,29.207,2.591,47.955,2.591
	c15.922,0,36.619,0.288,40.031-7.143c1.706-3.718,0.213-8.709-2.159-13.719l-97.218-178.212L463.151,24.466
	c2.19-4.523,0.849-6.849-0.828-9.478c-3.716-5.812-11.179-4.777-38.84-4.649c-16.596,0.081-32.686-0.349-40.814,0.101
	c-7.3,0.403-12.562,4.13-16.763,9.284L205.915,303.263L310.721,493.467z"/>
<path style="fill:#539282;" d="M181.629,131.817c-6.003-10.457-10.539-24.091-24.272-24.278c-24.273,0-48.557,0-72.829,0
	c-3.973,0.569-7.536,1.568-8.346,5.31c-1.299,7.884,5.414,18.71,9.114,25.044c8.607,14.781,38.908,62.945,38.677,68.267
	c-0.151,3.569-47.627,84.621-68.264,121.377c-3.071,5.457-9.667,15.29-7.593,19.725c2.171,4.636,6.481,6.364,9.099,6.07
	c24.529,0,49.063,0,73.595,0c15.033-1.83,15.701-9.782,29.575-34.899c21.24-38.449,43.885-77.514,63.728-113.032
	C211.849,182.61,195.541,156.052,181.629,131.817z"/>
<g>
	<path style="fill:#849E24;" d="M314.877,508.633c-3.118-0.633-8.708-2.66-12.985-10.064c-0.035-0.06-0.068-0.119-0.103-0.181
		L196.983,308.184c-1.706-3.096-1.686-6.855,0.051-9.932L357.026,14.714c0.284-0.504,0.611-0.983,0.977-1.432
		c6.622-8.125,14.733-12.507,24.106-13.023l51.79-0.202c21.139-0.216,30.78-0.317,37.016,9.439
		c1.844,2.889,6.149,9.638,1.412,19.416l-153.874,273.66l94.775,173.774c2.716,5.736,5.9,14.294,2.211,22.335
		c-6.021,13.115-26.195,13.076-47.585,13.09c0,0-16.126,0.403-21.492,0.142C338.459,511.528,322.633,510.206,314.877,508.633z
		 M383.232,20.623c-3.391,0.188-6.088,1.671-8.904,4.93L217.59,303.322l102.002,185.114c0.1,0.168,0.182,0.29,0.24,0.372
		c0.263,0.093,0.678,0.22,1.003,0.319l0.353,0.108c8.113,2.498,20.9,2.359,34.449,2.214c3.433-0.037,6.944-0.074,10.505-0.074
		l1.725,0.001c7.704,0.011,22.896,0.014,28.615-1.94c-0.226-0.87-0.676-2.197-1.568-4.112l-97.069-177.943
		c-1.683-3.085-1.659-6.82,0.064-9.882L453.476,20.865L383.232,20.623z"/>
</g>
<path style="fill:#396357;" d="M162.565,336.061c-8.174,15.76-13.108,25.274-30.522,27.394l-75.366,0.103
	c-6.158,0.001-13.865-3.57-17.797-11.972c-4.044-8.647,1.796-18.572,6.487-26.547l67.72-119.384l-37.239-63.715
	c-4.601-7.834-11.553-19.671-9.729-30.748c0.028-0.167,0.06-0.333,0.096-0.5c1.604-7.415,7.279-11.873,16.865-13.247l74.277-0.104
	c0.046,0,0.093,0,0.139,0.001c17.58,0.238,24.942,14.249,30.319,24.478l45.279,78.749c1.651,3.067,1.621,6.765-0.077,9.806
	L162.565,336.061z M134.16,206.605l-75.429,136.53h71.448c5.706-0.731,6.58-1.615,14.28-16.464l68.007-121.338L169.76,131.31
	c-5.301-10.088-7.86-13.482-12.484-13.573H86.642L134.16,206.605z"/>
<g>
	<path style="fill:#849E24;" d="M333.022,158.06c-1.732,0-3.486-0.443-5.093-1.371c-4.876-2.819-6.545-9.057-3.726-13.932
		l3.537-6.119c2.819-4.875,9.054-6.543,13.932-3.726c4.875,2.819,6.545,9.057,3.726,13.932l-3.537,6.119
		C339.973,156.232,336.546,158.06,333.022,158.06z"/>
	<path style="fill:#849E24;" d="M245.8,308.985c-1.733,0-3.489-0.443-5.097-1.373c-4.874-2.821-6.541-9.059-3.72-13.934
		l71.383-123.391c2.821-4.873,9.058-6.541,13.934-3.72c4.874,2.821,6.541,9.059,3.72,13.934l-71.383,123.391
		C252.746,307.158,249.321,308.985,245.8,308.985z"/>
</g>
<g>
</g>
<g>
</g>
<g>
</g>
<g>
</g>
<g>
</g>
<g>
</g>
<g>
</g>
<g>
</g>
<g>
</g>
<g>
</g>
<g>
</g>
<g>
</g>
<g>
</g>
<g>
</g>
<g>
</g>
</svg>
