<svg width="1920" height="1080" viewBox="0 0 1920 1080" fill="none" xmlns="http://www.w3.org/2000/svg">
<path d="M1920 0H0V1080H1920V0Z" fill="#071C21"/>
<path d="M1327 1080C1335.37 1031.21 1343.74 982.292 1372.25 935.407C1400.55 888.395 1448.99 843.289 1512.57 820.292C1576.36 797.421 1655.09 796.659 1725.46 780.649C1795.82 764.64 1858.01 733.384 1920 702V1080H1327Z" fill="#C6DE41"/>
<path d="M603 0C596.109 54.9802 589.217 109.96 556.99 160.429C524.762 211.039 467.198 257.279 399.906 278.143C332.41 299.008 255.186 294.637 186.879 313.951C118.573 333.264 59.3879 376.262 0 419.4V0H603Z" fill="#C6DE41"/>
</svg>
