<svg xmlns="http://www.w3.org/2000/svg" version="1.1" xmlns:xlink="http://www.w3.org/1999/xlink" width="512" height="512" x="0" y="0" viewBox="0 0 501.975 501.975" style="enable-background:new 0 0 512 512" xml:space="preserve"><g><path d="m257.313 477.564-44.087-174.986a19.064 19.064 0 0 0-13.828-13.828L24.411 244.662c-17.567-4.426-19.636-28.556-3.079-35.909L465.139 11.676c15.949-7.082 32.242 9.21 25.16 25.16L293.221 480.643c-7.352 16.557-31.482 14.488-35.908-3.079z" style="" fill="#ffd260" data-original="#50a5dc" opacity="1"></path><path d="M275.921 501.975c-.861 0-1.73-.037-2.604-.112-12.538-1.075-22.626-9.654-25.701-21.856L203.529 305.02a9.049 9.049 0 0 0-6.575-6.574L21.968 254.359C9.765 251.284 1.186 241.196.112 228.658c-1.075-12.537 5.661-23.938 17.162-29.045L461.08 2.536c11.078-4.919 23.775-2.56 32.347 6.012s10.931 21.268 6.012 32.347L302.361 484.701c-4.751 10.698-14.948 17.274-26.44 17.274zm-8.911-26.855c1.465 5.813 6.505 6.687 8.015 6.816 1.509.132 6.626.125 9.058-5.353L481.159 32.777c2.344-5.276-.843-9.055-1.875-10.087s-4.812-4.219-10.087-1.875L25.39 217.893c-5.478 2.433-5.481 7.548-5.352 9.058s1.003 6.55 6.816 8.015l174.986 44.087a29.025 29.025 0 0 1 21.082 21.082L267.01 475.12z" fill="#000000" opacity="1" data-original="#000000"></path><path d="M92.008 224.472a10.003 10.003 0 0 1-4.064-19.142l223-99.025c5.052-2.238 10.956.034 13.198 5.081 2.241 5.048-.033 10.957-5.081 13.198l-223 99.025a9.994 9.994 0 0 1-4.053.863zM369.008 101.468a10.005 10.005 0 0 1-9.146-5.944c-2.241-5.048.033-10.956 5.081-13.198l52-23.092c5.052-2.238 10.957.034 13.198 5.081 2.241 5.048-.033 10.956-5.081 13.198l-52 23.092a9.993 9.993 0 0 1-4.052.863z" fill="#000000" opacity="1" data-original="#000000"></path></g></svg>